<svg width="92" height="138" viewBox="0 0 92 138" fill="none" xmlns="http://www.w3.org/2000/svg">
<path d="M54.4751 2.65967L55.151 2.82857H55.827H56.5029L61.2343 10.4291L62.2482 12.1181V20.2253L62.5862 20.7321L63.262 21.7455L63.6 22.59L63.938 23.7723L64.276 25.6302V26.1369V27.1503V27.9948V29.1771L66.4727 31.3728L66.9796 31.7106L67.6556 32.8929L68.1625 36.4398V37.2843L67.9934 37.9599L69.0074 41.169L70.0212 44.5471L69.1763 48.6007L69.3454 51.6409L71.373 52.9921L76.4424 53.6677L82.3567 52.4854L86.0743 51.6409L87.9331 53.6677L90.4678 56.3701L89.2849 59.5792L88.1021 62.6195L87.0882 65.6597L86.7502 66.5042L82.3567 82.8876L75.0906 86.0967L68.8383 88.968L61.9102 92.0082L60.3894 92.6838L59.8824 94.035L58.8686 95.3862L57.6857 95.2173L57.1788 95.5551L55.489 98.2575L54.4751 99.9465L53.6302 101.467L52.9543 102.818V103.662L53.4612 105.182L54.6441 105.858L58.1926 111.77L56.6719 112.614L55.151 112.952L54.8131 113.121L54.3061 113.796L53.7992 115.654H52.4474L51.4335 115.992L50.5886 116.499L49.5747 117.343L48.7298 118.019L48.2229 118.357L47.7159 118.526H46.5331L45.6882 118.357L44.8433 118.526L43.9984 118.863L43.3225 119.201L42.8155 119.539L41.6327 120.552L41.1258 121.904L40.9567 123.762L40.4498 124.775H39.9429L40.1118 129.504H33.0148L32.0008 132.375L29.6352 132.882L27.2694 135.753L23.5518 132.882L21.6931 130.349H21.3551L19.6653 130.18L18.9894 130.011H18.1445L17.2996 130.349L16.7926 130.686L15.9478 131.193L15.4408 131.7L12.3992 133.558L10.7094 133.727L8.51271 134.064L7.49877 134.233L6.82292 134.402L6.14696 134.571L5.64004 134.74L5.13312 135.078L3.7812 136.091L2.59843 137.611L3.27428 136.429L3.44332 135.922V135.078L2.9363 133.558L2.26045 132.882L1.75353 132.375L0.90863 130.349L1.75353 127.477L2.0914 126.295L3.27428 123.762L4.6261 121.904L5.471 121.228L7.49877 118.357L7.83675 115.485V113.965L7.32983 112.445L6.14696 110.925L6.31589 107.378L5.471 105.858L4.96408 104.507L4.11918 101.129L4.45716 96.9063L4.96408 92.6838L5.13312 91.3326L4.79514 90.8259L5.13312 88.6302L5.471 87.279L5.80898 86.7723L5.97802 84.9144L5.80898 83.3942L5.471 82.3808V81.5363L5.64004 78.3272L5.97802 76.4693L6.65387 75.4559L7.32983 74.9492L7.66781 74.2736L8.17473 73.0913L8.34367 72.4157L8.51271 71.7401V70.7267L8.34367 69.8822L8.00569 69.0377L7.66781 68.6999L6.82292 68.1932L6.14696 67.8554L5.64004 68.0243L4.96408 69.5444L2.9363 69.2066L3.44332 65.9975L3.61226 62.2816L4.11918 58.0591L4.96408 57.0457L5.80898 56.7079L5.97802 57.8902L6.48494 58.5658L7.83675 58.228L8.68165 57.8902L9.18857 57.5524L9.52655 57.0457L9.86453 56.539L10.5404 54.85L11.0474 53.4988L10.8784 52.8232L10.7094 52.3165L10.5404 51.1342L11.2163 47.4184L11.8923 42.3514L12.2302 38.8044L12.7372 34.9197L13.0751 33.2307L13.5821 31.3728L14.427 24.7857L14.258 23.9412V22.2522L14.5959 20.901L15.7788 19.8875L15.9478 18.5363L16.7926 15.8339L17.1306 15.665L19.6653 15.4961H20.3413L23.0449 15.8339L24.5658 16.1717L26.2556 16.8473L28.1143 16.5095L35.8873 14.6516L42.3086 12.6248L45.3502 12.287L47.547 11.2736V10.4291L47.7159 9.7535L48.0539 9.0779L48.3919 8.40229L49.4057 6.54439L49.5747 5.86878L49.7437 4.68647L49.4057 4.01088L48.7298 3.84197L47.378 4.17977H46.7021H46.0261L44.1674 3.50417L43.4914 3.16637L43.1535 2.65967L43.4914 1.98406L43.9984 1.64626L45.0123 1.13956L47.04 0.801758L51.4335 1.30846L53.2923 1.47736L53.4612 1.81517L53.9682 2.32187L54.4751 2.65967Z" stroke="#FCF8E3" stroke-miterlimit="10"/>
</svg>
