<svg width="68" height="65" viewBox="0 0 68 65" fill="none" xmlns="http://www.w3.org/2000/svg">
<path d="M2.3306 23.8578L2.83752 24.1956L3.51348 24.5334L5.54125 25.8846L11.7934 19.6353L12.1314 18.7908L12.3004 18.1152L12.4694 17.2707L11.9625 16.5951L11.1176 16.2573L10.2727 13.8927L13.1453 9.50123L13.8212 8.65672L14.1592 5.95435L13.8212 5.27871L12.3004 5.10985L11.7934 4.4342L13.9902 1.73183L17.3698 1.2251L18.3837 1.73183L19.3975 2.40742L20.2424 2.91411L23.622 3.75861H25.6498L27.1706 5.44762L27.8465 7.13663L29.3673 9.33237L30.5502 10.008L31.0571 10.1769L31.902 10.3457L32.7469 10.5146L33.4229 10.8525L35.4506 12.5415L35.7885 13.2171L36.6334 14.2305L37.1404 14.5683L40.689 15.2439L43.7306 14.9061L44.4066 14.7372L45.2515 15.075L46.0964 16.2573V17.4396L45.9273 18.2841V19.2975L46.0964 19.9731L46.6033 21.831L46.9413 22.5066L47.7861 23.1822L48.124 22.3377L48.462 21.4932L48.8 21.1554L50.9967 20.142L52.5176 19.2975L52.8555 18.9597L53.1934 17.9463L55.7281 17.4396L61.3045 17.2707L62.8253 17.4396V18.7908L62.4873 20.9865L62.8253 22.6755L63.6702 26.7291L64.1771 27.7425L65.191 28.756L65.8669 29.0937L66.7118 29.7693L67.2188 30.7827L67.0498 31.7962L66.2049 35.0053L64.6841 36.5254L64.1771 36.6943H62.9943H62.1494L61.4735 36.8632L60.4596 37.3699L57.08 39.3967L54.8832 40.7479L54.2074 41.0857L53.3625 41.9302L53.0245 42.6058L52.8555 43.4503L52.6865 45.1393V45.9838L52.8555 46.8283L53.0245 48.8551L53.3625 52.2332L53.0245 54.9356L51.8416 58.1447L50.9967 62.0294L50.8278 63.2117L50.4898 63.7184L48.2931 63.8873L47.6171 63.5495L46.6033 62.1983H46.2653V61.5227L46.0964 60.6782L45.7584 60.0026H45.2515H43.5617L42.2097 58.9892L41.5339 58.3136L40.689 57.8069L40.013 57.638L36.1265 57.3002L35.4506 57.4691L34.7747 57.8069L34.0987 58.4825L33.5918 58.9892L32.9159 59.327L30.7191 60.1715L29.8743 60.0026L28.6914 59.4959L25.1428 58.3136H24.4669L22.6081 58.6514H21.9322H21.2563L20.5804 58.4825L19.9045 58.1447L19.2286 57.3002L18.5526 55.9489L18.2147 54.2599L17.7077 53.9222H14.1592L12.9763 55.4423L12.4694 56.2868L11.7934 56.9624L11.1176 57.3002H10.4416H9.76574L9.08978 57.1313L8.24488 56.9624L8.92084 55.9489L8.7518 52.5709L7.39999 47.8417L3.1755 35.6809L1.82368 30.9516L1.31671 27.2358V26.2224L1.65469 24.5334L2.3306 23.8578Z" stroke="#FCF8E3" stroke-miterlimit="10"/>
</svg>
