<svg width="113" height="198" viewBox="0 0 113 198" fill="none" xmlns="http://www.w3.org/2000/svg">
<path d="M69.3698 61.2385H69.7077L70.5526 59.5495L70.2147 58.8738L68.6939 58.5361L68.187 59.0428L67.511 59.2117L65.1454 58.0293L63.7934 56.5092L62.6107 55.327L60.7518 53.8068L59.9069 53.469L59.4 53.638L58.7241 54.4825L58.2171 55.1581L57.3722 55.327L56.1894 55.1581L55.6824 54.9891L55.1755 54.6513L55.0065 53.8068L55.3445 52.1178L56.0204 51.9489H57.5413L58.0482 51.78L58.8931 50.4288L57.2033 47.8953L56.5273 46.3752L56.6964 45.1929L57.2033 44.3484L57.8792 44.0106H58.3862L59.9069 44.3484H60.5829L62.7796 43.5039L67.511 40.8015L68.8628 39.6192L71.7355 36.9167L72.7494 34.89L73.4253 33.032L75.4531 27.4583L75.622 24.2492L74.2702 25.4315L72.4115 26.7827L69.8768 24.9248L68.0179 23.2358V22.2224L65.8212 21.209L64.3005 20.7023L63.4556 20.5334L62.4416 20.3645L61.7658 20.0267L59.4 17.4931L59.2311 16.4798L59.4 15.4664L61.0898 13.9463L62.7796 12.4261V11.0749L63.6245 9.38592L65.6523 5.33232H66.3281L67.3421 4.99449L69.7077 4.14999L69.5388 3.30548H71.0596L71.5666 3.64331L73.0873 3.98108L77.8188 4.82558L78.1567 3.4744L79.0016 2.29207L80.0155 1.27871L80.8604 0.771973L82.0433 1.27871L82.2123 2.62989L84.071 5.67009L84.578 5.839L85.5918 6.00791L86.2678 6.51459L87.1127 7.52801L87.6196 8.37251L87.7886 9.72375L91.1682 9.38592L91.5061 8.03474L94.8857 6.34573H95.7306L97.5894 7.19023L98.7722 8.87924V9.55484L98.6033 10.2304L96.4066 13.6084L95.5617 14.4529L94.7168 16.9865L95.0547 17.831L95.2237 18.6755V22.3913L94.0408 23.2358L93.7028 23.9114L94.3788 24.7559L95.5617 25.0937H99.2792H101.307L102.828 24.9248H104.687L109.587 25.9382L110.432 26.6138L111.784 29.4851L111.446 30.6674L110.939 31.343L109.925 31.5119L108.911 33.8765L109.08 34.721L109.249 35.7345L109.08 36.7479L107.897 38.4369L107.221 38.6057H106.376L105.7 38.4369L105.025 38.0991L103.842 37.2546L103.166 36.7479L102.659 36.579H101.983L101.138 36.9167L99.7862 37.5924L99.2792 37.7612L98.7722 37.9302L98.2653 37.7612L97.7584 37.5924L97.2515 37.4235L95.8996 37.0856L95.3926 37.4235L94.8857 38.0991L94.2098 38.268L91.5061 37.9302L90.9992 37.7612L90.4923 37.5924L89.8163 37.2546L89.1404 37.0856L88.4645 37.4235L88.2955 38.0991L88.6335 41.9838L91.8441 42.6594L94.8857 42.9972L96.4066 43.1661L100.124 44.5173L100.969 45.3618L102.152 47.8953L106.207 53.1312L106.883 55.6647L102.828 61.5763L99.4482 63.0964H98.9413H98.4343L97.9273 63.2653L96.9135 63.6031L96.0686 64.2787L95.2237 67.6567L94.8857 70.1902L95.7306 74.2438L96.4066 74.7506L97.0824 74.9194L98.0964 75.4262L98.6033 76.1017L99.1102 78.6353L98.2653 79.3109H98.0964L97.5894 79.8176L96.7445 80.8309L96.2375 81.6755L95.7306 82.6889L95.0547 83.3645L94.3788 83.7023L93.7028 83.8712H93.027L91.8441 84.3779L93.5339 86.2358L94.3788 86.5736L95.2237 86.9114L95.7306 87.7559L95.8996 88.6004L96.2375 94.1742L97.0824 96.2009L97.5894 97.8899L97.7584 101.944L97.5894 102.957L97.2515 103.633L94.2098 106.504L93.3649 106.842L91.6751 107.011L91.1682 107.517L90.3233 115.118L92.351 117.989L93.027 118.834L93.1959 120.016L92.858 121.705L92.52 122.212L89.3094 123.732L87.7886 126.434L85.9298 128.461L85.0849 128.799L84.24 128.461H83.5641L82.7192 128.799L82.2123 128.968L81.7053 129.306L81.3674 129.812L81.1984 130.826L81.5363 131.163L82.3812 131.67L81.8743 134.879L81.7053 135.724L81.3674 136.399L80.1845 138.426L79.6776 139.44L79.0016 140.96L77.1429 146.364V147.209L77.4808 147.885L78.3257 148.898L79.0016 149.405L80.0155 149.742L82.0433 152.276L82.5502 156.33L82.7192 161.903L79.5086 163.93L77.9878 164.606L77.1429 165.619L76.636 165.957L76.298 166.464L76.129 167.308L76.636 169.842L76.8049 170.686L77.1429 173.051L77.3118 175.922V177.611L77.1429 178.456L76.4669 179.3L73.5943 182.171L72.9184 182.678L72.4115 183.016L71.7355 183.354L71.0596 183.692L69.8768 183.86H68.8628L68.3559 184.029L67.511 184.367L66.8352 184.874L66.3281 185.549L64.6383 188.083L62.2727 193.657V194.501L62.4416 194.839L62.1036 194.501L55.0065 188.421L49.2612 183.523L40.9812 176.26V175.922L39.7984 175.247L38.4466 174.909H37.7706L36.9257 175.247L36.4188 175.415L35.9119 175.584H35.067L33.7151 173.726L33.0392 171.362L34.0531 169.842L36.4188 167.308L37.7706 166.464L38.9535 167.139L41.4882 168.997L41.9951 168.491L42.1641 164.099L39.9674 163.423L39.2915 162.579L38.9535 162.241L38.4466 162.072L37.0947 161.903L37.7706 161.228L39.7984 160.721L36.2498 159.37L33.0392 156.498L30.8425 153.965L28.6457 152.276H27.8008L27.1249 151.938L26.9559 150.249L27.6319 149.236L30.1666 147.716L32.8702 148.898L34.3911 150.08L34.898 150.925L35.236 151.6L35.7429 152.952L36.2498 155.992L37.7706 157.512L38.4466 157.343L36.5878 152.783L35.067 150.08L34.898 149.405L35.5739 149.067L38.1086 148.898L41.1502 149.067L41.8261 149.574L42.5021 150.418L43.8539 150.925H46.3886L48.4163 150.249L52.6408 154.134V155.823L53.4857 158.019L53.8237 156.667L55.0065 155.485L56.1894 155.654L56.6964 155.823L57.3722 156.161H58.3862L59.569 155.147L59.9069 154.641L60.076 153.627V152.445L59.738 151.6L59.569 153.458L59.062 154.134L58.0482 154.978L57.5413 155.147L56.8653 154.809L54.8375 153.458L52.6408 150.925L51.12 148.56L50.951 145.858H52.9788L53.1477 147.04L53.9926 148.053L54.4996 148.391L55.0065 148.56L56.1894 148.898L61.2587 149.236L60.2449 148.391L58.5551 147.885H57.7102H57.0343L56.1894 148.053L55.3445 147.885L54.3306 147.04L49.5992 141.129L48.9233 139.271L49.0922 138.426L49.5992 137.751L50.2751 137.075L50.951 136.062L50.4441 133.697L49.2612 132.346L48.2473 134.541L49.0922 135.217L49.2612 136.062L48.2473 141.466L47.7404 141.973L47.0645 142.311L44.1918 143.493L42.3331 143.155L41.8261 142.986L41.1502 141.466L40.3053 141.297H39.1225L35.067 140.453L33.2082 139.946L31.1804 140.453L30.5045 140.791L29.3217 140.96L27.6319 140.622L26.9559 140.453L25.2661 139.608L24.5902 138.595L27.9698 133.528L28.9837 132.852H29.4906L31.5184 133.021L32.1943 133.19L33.5462 134.373L34.0531 136.23L34.898 138.426L35.9119 139.608L36.7568 139.946L37.6017 140.115L38.1086 139.777H37.4327L36.2498 139.44L35.5739 138.764L35.236 137.413L36.2498 135.724L38.4466 135.217L39.7984 135.724H40.4743L41.4882 135.217L41.1502 132.346L39.4604 133.19L38.6155 134.035L35.7429 134.71L35.236 134.541L30.1666 129.137L29.8286 128.461L31.1804 126.096L33.7151 123.563L34.2221 122.549L34.56 121.705L34.898 120.86L37.9396 120.354L38.4466 120.692L38.6155 121.705V122.887L39.7984 125.252L39.9674 125.421L39.7984 124.914L39.1225 122.887V122.043L39.2915 120.86L39.6294 120.354L41.3192 118.665L43.8539 114.611L41.9951 112.753L41.4882 112.584H40.9812L40.4743 112.753L39.7984 113.26L39.1225 113.091L36.5878 109.037L36.2498 107.011V106.166L34.56 105.49L27.8008 106.166V108.193L28.4768 108.024H29.4906L32.1943 108.868L31.8564 109.882L31.1804 110.389H30.5045L28.9837 110.22L27.1249 109.375L21.3796 106.673L18.5069 105.153L16.8171 101.944V100.93L17.1551 100.086L18.5069 98.3967L20.1967 96.7077L20.0278 94.343L19.5208 95.1875L19.1829 96.3698L16.8171 98.9034L15.9722 99.7479L14.2824 100.761L10.3959 101.944L9.38204 101.775H8.36815L6.67836 102.281L4.48164 103.126L3.80573 103.633L2.45387 105.828L2.96084 106.335L4.14366 105.322L6.84735 103.464H7.52325L8.19921 103.801L10.0579 109.544L9.88901 110.389L8.36815 111.402L7.01634 111.909L6.50942 112.078H6.34043H6.17144L4.65063 111.571L2.96084 109.375L1.27104 106.335L1.10205 103.97L1.44003 100.761L2.96084 98.5655H3.46775H4.14366L4.98856 98.7344L6.17144 98.0589L9.21305 95.3564L9.04411 94.1742L10.0579 92.8229L10.5649 92.3162L12.2547 91.4717L13.2686 92.4851V92.8229L13.4375 90.7961L13.7755 89.1071L16.4792 86.2358L17.4931 86.0669H19.6898L22.9004 82.52L23.7453 80.6621L25.2661 76.1017L26.111 73.2304L26.449 72.7237L31.6874 72.0481L33.8841 71.5414L34.729 71.8792L35.236 73.0616L36.4188 72.217L38.9535 71.8792L39.4604 72.217L40.1363 73.0616L41.4882 76.7773L40.8123 80.3243L40.4743 81.3377L39.9674 82.3511L39.4604 82.8578L39.1225 83.1956H39.6294L41.1502 82.0133L41.6572 80.1554V79.4798L41.4882 78.6353L41.8261 77.9597L43.6849 79.8176L43.8539 80.4932V81.5066L43.5159 82.3511L43.178 82.8578L41.6572 84.5468L40.4743 85.5602L39.1225 86.2358L37.6017 86.9114L34.729 87.7559H34.0531L33.3772 87.4181L32.3633 86.5736L31.8564 86.0669L30.8425 85.3913L32.8702 87.4181L33.3772 87.7559L33.8841 88.0937H34.56L36.9257 87.4181L38.7845 86.9114L39.6294 86.5736L40.8123 85.898L41.3192 85.7291L42.3331 88.9382L44.8678 90.6272L45.5437 90.965H45.7127L45.8816 90.6272L45.2057 89.6138L44.5298 89.276L43.6849 88.7693L41.8261 86.4047L42.671 84.5468L43.178 84.0401L44.8678 83.8712L48.0784 87.4181L47.9094 89.276L47.7404 90.6272L47.4025 91.6406L47.0645 92.4851L45.3747 94.6808L44.5298 95.5253L42.5021 98.5655L44.5298 100.086H45.3747L46.0506 99.7479L46.3886 99.2412L47.7404 96.3698L48.0784 95.5253L48.5853 93.6674L52.6408 88.6004L53.6547 85.7291L56.1894 81.6755L55.8515 81.3377L53.4857 84.5468L52.4718 86.2358L52.1339 87.4181L51.458 88.9382L50.782 89.7827L49.9371 90.1205V88.6004L50.1061 87.9248L50.951 86.2358L51.289 84.8846L51.6269 83.3645V82.1822L50.951 80.1554L50.4441 78.6353L53.3167 72.7237L55.6824 69.8524L56.1894 69.3457L57.0343 68.6701L57.7102 68.3323H58.2171H59.4L60.7518 68.5012L61.5967 68.3323L62.1036 67.8256L58.7241 66.6433L57.8792 66.8122L56.8653 67.15L56.0204 67.8256L55.3445 69.1768L55.0065 69.6835L53.1477 71.5414L52.6408 71.7103L52.8098 68.5012L54.1616 60.5628L57.0343 57.8605L59.569 56.0026L61.4278 55.1581L62.1036 55.8336L62.2727 56.8471L62.9485 57.6916L63.9625 58.5361L66.1592 60.0562L67.6801 60.5628L69.3698 61.2385ZM69.5388 36.2411L68.187 37.2546L67.0041 37.9302L65.3143 39.6192L64.9763 40.1259L64.6383 40.6326L64.4694 40.8015L62.7796 42.1527L61.2587 42.8283L60.5829 42.9972L59.738 43.1661H59.4L59.062 42.9972L56.5273 39.957L56.3584 39.6192V39.2814L56.5273 38.9436L58.8931 38.0991L59.2311 38.268L59.569 38.4369L59.9069 38.7747L60.9209 38.6057L61.0898 38.4369L60.4138 37.7612L58.8931 37.0856L57.8792 37.7612L57.5413 38.0991L57.2033 38.268H56.8653L56.5273 38.0991L56.1894 37.7612L55.3445 36.0722L55.0065 35.2277L54.4996 33.032L55.5135 31.6809L55.6824 31.5119L56.3584 31.343H56.6964L59.062 30.8363L59.4 29.3162L59.569 27.965V27.4583V27.1205L60.076 25.7693L60.4138 25.4315L60.7518 25.2626L63.7934 24.2492L65.9903 23.7425H66.3281L69.2008 26.1071L71.0596 26.7827L71.5666 27.1205L72.5804 28.9784L72.7494 29.3162V29.654L70.8906 32.3564L70.7217 32.5254L70.3837 32.6942L69.8768 32.8631L68.3559 32.6942L68.0179 32.5254L67.6801 32.1875L66.3281 31.6809V32.1875L66.4972 32.5254L68.0179 33.5387L68.6939 33.7076L69.7077 33.8765L69.8768 34.3832L69.5388 35.0589L69.2008 35.5656L69.5388 36.2411ZM13.6065 174.74L13.2686 174.909L12.7616 175.078L11.7477 172.544L11.4098 170.855L10.9028 167.477V166.97L11.4098 165.45L9.04411 163.93L7.52325 164.775L7.18533 164.944L6.67836 165.112H6.17144H5.83346L5.32654 164.775L5.15755 164.437V164.099L5.32654 163.761L5.83346 163.423L6.34043 163.086L7.01634 162.748H7.86123H8.53714L8.87512 162.579L9.38204 162.241L9.72002 161.903L10.0579 161.228L10.3959 160.721L10.0579 160.552L8.87512 161.228L5.66452 161.566L5.32654 161.228L4.48164 153.458L4.65063 153.12L5.66452 151.769L6.34043 151.263L9.88901 150.249H10.2269L10.5649 150.587L12.0857 155.147L12.2547 155.823L12.4237 157.85L13.2686 160.552L13.7755 162.072L14.4514 162.917L15.2963 164.437L16.4792 167.984L16.8171 171.024L16.6482 171.7L16.4792 172.037L13.6065 174.74ZM27.4629 174.402L24.5902 172.375H24.2523L23.9143 172.544L23.5763 172.713H23.0694L20.1967 172.206L18.6759 171.362L18.338 171.024L18.169 170.686L17.831 167.984L18 167.308L18.169 166.97L18.338 166.633L20.0278 164.775L20.3657 164.606L21.8865 164.437H22.2245L22.3935 164.944L22.9004 165.788L23.0694 166.295L23.2384 166.633L24.2523 167.477L25.4351 166.126V165.788L25.0972 165.281L24.9282 165.112L24.2523 164.944L23.4074 163.423L23.2384 163.086L22.9004 161.734V161.228V160.721L23.9143 155.316L24.0833 154.809L24.2523 154.472L24.5902 154.134L24.9282 154.303L25.4351 154.978L25.6041 155.316L25.7731 155.823V156.498L25.9421 157.85L26.28 160.383L28.4768 164.268L27.9698 165.957V167.984L28.1388 169.673L28.3078 170.348L29.4906 172.037H29.8286L29.9976 171.7V171.362L29.8286 171.024V170.686L30.1666 170.517L30.3355 170.686L30.6735 170.855L30.8425 171.193V171.7L30.6735 172.713L30.5045 173.389L30.3355 173.726L29.9976 173.895L28.8147 174.74L28.3078 174.909H27.8008L27.4629 174.402ZM17.831 165.45H17.4931L17.1551 165.281L13.7755 157.681L12.2547 153.12V152.107H13.0996L14.6204 152.445L17.4931 153.12L18.169 153.458L20.1967 155.147L22.9004 155.823L23.2384 156.161V156.667V157.343L22.3935 162.579L22.2245 162.917L21.8865 163.086H21.2106L20.0278 163.93L19.5208 164.268L18.8449 164.775L17.831 165.45ZM48.9233 54.8202L47.4025 54.3136L46.5576 53.3001H45.5437L44.1918 53.638H43.8539H43.009L42.671 53.469L42.3331 53.3001L42.1641 52.7935L39.9674 50.2599L39.2915 50.5977L37.6017 50.9355H37.2637L37.0947 50.7666L36.9257 49.9221L36.7568 48.9087V48.5709L36.9257 47.8953L37.2637 47.3886L38.1086 46.5441L38.4466 46.2063L38.9535 46.0374H39.4604L39.6294 46.2063L40.1363 46.3752L41.1502 46.2063L43.009 45.8685L43.5159 45.6996L44.3608 45.1929L44.6988 45.024H45.0367H45.5437L46.0506 45.1929L46.2196 45.3618L47.7404 46.5441L47.9094 46.713L48.0784 46.8819L48.2473 47.2197L49.2612 48.7398L49.5992 49.7532V50.091V50.5977V51.4422L48.9233 54.8202ZM34.729 148.898L33.8841 148.391L30.8425 147.209L30.3355 146.871V146.533L32.1943 144.338L32.3633 144L32.8702 143.662L35.236 142.48L35.7429 142.311L41.1502 144.169L44.0229 145.351H44.6988L45.0367 145.182L45.7127 144.507L46.0506 144.338H46.2196L46.5576 144.507L46.8955 145.013L47.0645 145.351L46.8955 145.858L46.3886 147.209L45.8816 147.547L45.0367 147.885H44.6988H43.8539H41.3192H40.8123L40.3053 147.716L39.9674 147.547L39.4604 147.378H39.1225L35.236 148.56L34.729 148.898ZM36.0808 38.6057H35.5739L34.898 38.4369L34.3911 38.0991L34.2221 37.9302L33.8841 37.5924L33.3772 36.9167L32.3633 34.89V34.5521V33.032L32.7013 32.6942L35.9119 31.8497H36.2498H38.2776L42.1641 32.0186L43.009 32.3564L43.347 32.5254L43.8539 32.8631L44.0229 33.032L44.3608 33.3699L45.0367 34.3832L45.2057 34.89L41.8261 35.7345L37.7706 37.5924L37.0947 37.9302L36.0808 38.6057ZM16.6482 82.6889L16.3102 82.3511L16.1412 82.0133L15.8033 80.9999L15.9722 80.6621L16.3102 80.4932L19.1829 79.6487L19.5208 79.8176L19.3518 79.1419L18.6759 78.9731L18 79.1419H17.1551L16.8171 78.9731L16.6482 78.4663L15.8033 75.4262L15.9722 75.0883L16.3102 74.7506L16.8171 74.5816L19.0139 75.4262L19.3518 75.5951L19.6898 75.9328L21.2106 75.0883L23.2384 73.2304L24.4212 72.5548H24.9282L25.0972 73.0616V73.5682L24.9282 74.0749L23.7453 78.8042L23.5763 79.1419L23.4074 79.4798L22.7314 80.3243L20.1967 82.8578L19.8588 83.0267L18.169 83.1956H17.662L16.8171 82.8578L16.6482 82.6889ZM3.80573 174.402L4.48164 173.558L5.15755 173.726L5.83346 173.558H6.17144L6.84735 173.22L7.18533 173.051L7.69224 172.544L7.86123 172.037L7.69224 171.869L7.18533 172.206L6.84735 172.544L6.50942 172.713H6.00245H5.66452L3.97472 172.544L2.79185 172.037L2.28493 171.024L2.79185 167.139L3.46775 165.788L3.97472 165.619L9.04411 165.112L10.2269 165.281L10.3959 165.788L10.9028 170.855L10.7339 171.193L9.55103 172.206L9.04411 172.713L7.52325 173.895L6.84735 174.402L6.50942 174.571L6.17144 174.74H5.49553H4.65063L4.14366 174.571L3.80573 174.402ZM31.3494 71.7103L31.0115 71.5414L30.6735 71.0347L30.5045 70.3591V69.8524L30.6735 69.5146L31.1804 68.839L31.5184 68.1634V66.8122L31.3494 65.2921L31.1804 64.2787V63.772V63.2653L31.3494 62.5897L31.5184 62.2519L31.6874 61.5763L32.0253 60.9007L32.3633 60.2251L32.8702 60.0562L35.067 61.0696L35.4049 61.4074L35.5739 61.7452L36.0808 62.7586L36.2498 63.4342L36.7568 65.1232L37.0947 66.4744L36.5878 67.8256L36.4188 68.1634L32.7013 71.0347L32.3633 71.2036L31.3494 71.7103ZM21.0416 151.938H20.7037L19.3518 151.6L17.831 150.925L17.4931 150.756L17.3241 150.418L17.662 149.742L17.1551 149.405L16.4792 149.236H15.8033L15.2963 149.574L14.7894 150.249L14.4514 150.925L14.1135 151.094L13.4375 151.263H12.5926L12.0857 151.094L11.7477 150.756L13.0996 148.729L13.7755 148.222L14.1135 148.053L15.8033 147.547L16.6482 147.378H17.1551L19.3518 145.858L21.0416 143.493L22.3935 142.818L22.7314 143.155L22.9004 144.338V144.675V146.027V151.094L21.5486 152.107L21.3796 152.276L21.0416 151.938ZM50.782 71.0347H50.6131L50.2751 70.8658L47.7404 67.9945L47.5714 64.4476V63.9409V63.4342L47.7404 63.0964L47.9094 62.5897L49.2612 60.7318L49.4302 60.5628H49.9371H50.2751L51.9649 61.0696L52.1339 61.4074V62.5897L51.289 69.1768L50.782 71.0347ZM35.7429 46.2063H35.5739L33.8841 45.6996L33.7151 45.3618L34.0531 44.5173L37.6017 40.9704L37.9396 40.8015L38.4466 40.6326H38.9535L43.347 41.8149L43.6849 42.1527L44.5298 43.335L44.6988 43.6728L44.3608 44.0106L43.5159 44.5173L43.009 44.6862L41.4882 45.024H41.1502H39.2915L38.1086 44.8551L37.6017 45.024L37.2637 45.1929L35.7429 46.2063ZM48.5853 36.4101H48.2473L46.7265 34.2144V31.0052L46.8955 30.4985L47.2335 30.1607L49.5992 29.654H49.9371L50.2751 29.8229L50.6131 30.1607L51.458 32.0186L52.3028 34.89V35.2277L51.9649 35.3966L49.4302 36.2411L48.5853 36.4101ZM42.5021 9.55484L41.8261 8.87924L39.4604 8.2036L38.2776 7.69692L38.1086 7.35909L38.6155 5.50123L38.9535 5.1634L39.2915 4.99449L40.8123 5.1634L41.1502 5.33232L44.3608 4.82558L45.7127 3.64331L47.4025 5.50123L47.9094 7.02132L48.0784 7.69692L45.8816 7.86583L45.5437 7.52801L45.2057 7.35909L45.0367 7.02132L45.3747 6.6835L45.5437 6.34573L45.2057 6.17682H44.5298L43.178 6.51459L43.009 7.19023L43.347 7.52801V7.86583L44.0229 8.2036L43.178 9.21701L42.84 9.38592L42.5021 9.55484ZM42.3331 57.1848H41.9951L39.1225 56.1715L38.9535 55.8336L38.4466 53.638L38.9535 52.9623L40.4743 52.2867H40.8123L41.1502 52.4556L41.3192 52.6245L41.6572 53.469L41.8261 53.638L42.1641 53.8068L42.5021 53.9757H42.84H43.6849H44.0229L44.8678 53.8068L45.5437 53.638L46.2196 53.8068L46.5576 53.9757L46.7265 54.1446L47.0645 54.8202L47.2335 55.4958V56.1715L47.0645 56.6782L46.8955 56.8471H45.2057H43.178L42.3331 57.1848ZM29.8286 161.734L29.6596 161.566L28.1388 158.356V158.019V157.343V156.498V155.147L28.9837 153.965H29.3217L29.8286 154.303L30.6735 154.978L33.2082 157.681L33.7151 158.863L32.7013 160.214L32.3633 160.383L29.8286 161.734ZM47.9094 86.5736L47.0645 85.898L46.8955 85.7291L44.0229 81.8444V81.3377L44.3608 80.4932L44.6988 80.1554L45.0367 79.9864H46.2196H46.7265L48.9233 80.9999L49.9371 81.8444L50.2751 82.1822L50.4441 82.8578L50.2751 83.5334L48.9233 86.0669L48.5853 86.7425L48.2473 86.9114L47.9094 86.5736ZM32.7013 29.9918L29.9976 29.3162L29.6596 28.9784L29.4906 28.6406L29.1527 27.4583L29.3217 26.9516L29.8286 26.4449L30.1666 26.276L34.729 24.9248L35.9119 25.2626L36.7568 26.6138L37.0947 27.1205V27.4583L36.5878 27.6272L34.3911 28.1339L32.7013 28.4717L32.3633 28.6406L32.7013 29.9918ZM42.671 69.8524H42.5021L41.1502 69.6835L40.8123 69.3457L40.1363 67.4878L39.6294 66.3055V65.6299L40.8123 64.1098L41.6572 63.6031H41.9951L43.178 64.2787L44.3608 65.461L44.8678 66.4744V66.9811L44.6988 67.9945L44.1918 69.3457L42.671 69.8524ZM3.63674 178.287H3.46775L3.12983 178.118L2.79185 177.78L2.62286 177.273L2.79185 175.078H3.29876L4.31265 175.584L5.32654 175.922H5.83346H6.17144L6.50942 175.753L8.03022 174.402L9.88901 172.713L11.0718 173.558L11.4098 174.571L11.5788 174.909V175.415L11.0718 176.091L10.7339 176.429L6.50942 177.949L3.63674 178.287ZM39.1225 64.7854L38.9535 64.6165V64.2787L39.1225 63.4342L39.2915 62.9275L39.4604 62.5897L39.7984 62.2519V61.5763L39.9674 61.0696L40.3053 60.5628L40.4743 60.0562L40.6433 59.7183L40.9812 59.3806H41.3192L41.6572 59.5495L41.9951 59.7183H42.5021H43.009L43.347 59.8873L43.6849 60.0562L43.8539 60.2251L44.5298 60.5628L44.8678 60.9007L45.2057 61.0696H45.5437L46.2196 60.5628L46.5576 60.394L46.8955 60.7318L47.0645 61.2385L46.8955 61.9141L46.7265 62.5897L46.5576 63.0964L46.2196 63.772L46.0506 64.4476H45.7127L45.2057 64.1098H45.0367L44.6988 63.9409L44.3608 63.2653L43.8539 63.0964H43.347L42.5021 62.7586L41.6572 62.5897H41.4882L41.1502 62.9275L40.6433 63.0964L40.3053 63.4342L40.1363 64.1098L39.9674 64.4476L39.1225 64.7854ZM38.2776 120.185L37.9396 120.016L36.9257 118.665V118.158V117.651L37.7706 115.287L37.9396 114.949L38.1086 114.78H38.4466L41.6572 114.949L43.009 115.962L40.9812 118.665L40.4743 119.171L40.1363 119.34L39.7984 119.509L38.6155 119.847L38.2776 120.185ZM46.2196 43.6728L45.3747 42.8283L44.5298 41.9838L44.3608 41.4771L44.1918 41.1393L44.0229 38.6057L44.1918 38.0991L44.5298 37.5924L44.8678 37.4235H45.2057H45.7127L46.2196 37.5924L46.3886 37.9302L47.9094 41.8149L48.0784 42.8283L47.9094 43.335L47.7404 43.6728L47.4025 44.0106H46.8955H46.5576L46.2196 43.6728ZM35.9119 166.295L35.5739 165.788L35.4049 165.619L34.898 165.281L33.2082 164.099L32.7013 163.761L31.5184 163.255L31.1804 162.917L30.8425 162.41L30.6735 162.072L33.7151 159.708L34.0531 159.539H34.3911L34.898 159.708L35.236 160.045V160.552L34.898 161.566V162.072L35.236 162.579L35.9119 163.592L36.4188 164.099L36.9257 164.437L37.2637 164.775L37.0947 165.281L36.7568 165.45L36.0808 165.788L35.9119 166.295ZM25.6041 70.0213V69.6835V69.0079V68.6701L26.111 66.8122L26.28 66.4744L26.449 66.1366L26.787 65.7988L26.9559 65.6299L27.2939 65.461L28.6457 64.7854H29.1527L29.4906 64.9543L29.6596 65.2921L29.3217 68.5012L28.6457 70.3591L28.3078 70.6969L27.9698 70.8658H27.4629H27.1249L25.9421 70.528L25.7731 70.3591L25.6041 70.0213ZM44.5298 78.8042L44.1918 78.6353L44.0229 78.2974L43.6849 77.2841V76.7773L43.8539 76.2707L44.0229 75.9328L44.6988 74.9194L45.0367 74.4127L48.5853 72.3859H48.9233L49.2612 72.8926L49.4302 73.2304L49.5992 73.7371L49.7682 75.4262L49.4302 75.2572L49.2612 75.0883H48.9233L47.9094 75.2572L47.4025 75.4262L46.8955 77.1152L46.0506 78.6353L44.5298 78.8042ZM13.9445 143.662L14.1135 142.986V142.649L13.9445 142.311L12.9306 141.973H12.4237H11.9167L11.5788 141.804L11.2408 141.466L12.0857 140.453L15.1273 138.764L15.4653 138.933L16.1412 139.946L16.4792 140.622L16.9861 141.973L16.8171 142.48L16.4792 143.155L16.3102 143.493L15.9722 143.831L15.2963 144.169L13.6065 144.507L13.9445 143.662ZM41.8261 76.4396L40.6433 73.7371L40.1363 72.7237L39.7984 71.8792L40.1363 71.2036L40.3053 70.8658L41.1502 70.1902H41.4882L43.178 70.8658V72.0481V74.5816L43.009 75.0883L42.671 75.9328L41.8261 76.4396ZM33.2082 40.2948H32.7013L31.1804 39.2814L29.6596 36.9167V36.4101L29.8286 36.0722L30.1666 35.9034L31.6874 35.3966L32.1943 35.5656L34.898 39.4502V39.7881L33.3772 40.1259L33.2082 40.2948ZM33.0392 58.5361L30.8425 57.1848L30.6735 57.016L30.3355 56.6782L29.8286 56.0026L29.6596 55.6647L29.8286 55.1581L30.1666 54.8202L30.6735 54.6513H31.0115H31.3494H32.3633L32.8702 54.8202L33.2082 55.1581L33.5462 55.6647L33.8841 56.1715L34.729 58.5361L34.56 58.8738L34.2221 59.0428L33.7151 59.2117L33.0392 59.0428V58.5361ZM41.3192 30.1607L40.6433 29.9918L39.7984 29.8229L39.2915 29.654L39.1225 29.4851L38.9535 28.9784L39.1225 26.6138L41.6572 26.9516L42.3331 27.1205L42.84 27.2894L43.009 27.4583L43.178 27.7961L43.347 28.1339L43.5159 28.6406V29.3162L43.347 29.8229L43.009 29.9918L41.3192 30.1607ZM62.4416 12.4261L61.7658 12.2573L59.9069 11.4128L59.569 10.906L59.4 10.2304V9.72375L59.738 8.87924L60.076 8.54142L61.5967 7.69692H62.1036H62.4416L62.7796 7.86583L62.9485 8.03474V8.54142L62.6107 12.0883L62.4416 12.4261ZM42.1641 22.5602H41.8261L41.4882 22.3913L40.6433 21.5468L40.3053 21.0401L39.4604 18.1688L40.9812 16.4798H41.3192L42.84 18.3376L43.6849 19.3511L42.3331 19.8578V20.3645V20.7023L42.1641 22.5602ZM50.6131 16.142L48.9233 13.1018L48.2473 11.4128V10.906L48.4163 10.3993L48.7543 9.72375L48.9233 9.55484H49.4302L51.12 11.9194L51.6269 14.284L51.458 15.1285L50.782 15.973L50.6131 16.142ZM32.0253 168.322L31.5184 167.139L30.3355 164.944L30.1666 164.606V164.268L30.5045 163.761H30.8425L31.5184 164.099L33.3772 165.112L34.56 165.957L34.898 166.295L35.067 166.633V166.97L34.729 167.308L34.2221 167.646L32.8702 168.322L32.1943 168.659H31.8564L32.0253 168.322ZM34.3911 55.1581L33.2082 54.1446L32.8702 53.8068L32.7013 53.638L32.5323 53.3001V52.7935L32.8702 50.9355L33.2082 50.2599H33.8841L34.2221 50.4288L36.0808 52.2867L35.4049 55.327L35.067 55.4958H34.729L34.3911 55.1581ZM31.1804 34.89H30.3355H27.2939L26.28 34.3832V33.8765L26.449 33.5387L27.4629 32.5254L27.8008 32.3564H28.3078H28.6457L29.3217 32.5254L31.1804 32.8631L31.5184 33.032L31.6874 34.721L31.1804 34.89ZM31.1804 119.678L30.6735 118.496V117.314L30.8425 116.976L32.3633 116.131L32.7013 115.962L33.5462 115.793H34.2221L34.729 115.962L34.898 116.3V116.807L34.729 117.482L34.56 117.82L31.8564 120.016L31.5184 120.185L31.3494 119.847L31.1804 119.678ZM16.3102 42.6594H16.1412L15.8033 42.4905L14.9584 40.1259L14.7894 39.7881V39.4502V38.9436L14.9584 38.4369L15.4653 37.7612L15.9722 37.5924L16.3102 37.7612L17.662 39.957V41.4771L16.4792 42.4905L16.3102 42.6594ZM43.178 26.1071L40.6433 24.7559L40.3053 24.4181L39.7984 22.5602L40.1363 22.3913L43.8539 23.5736L44.0229 26.276L43.8539 26.6138L43.347 26.4449L43.178 26.1071ZM34.56 31.0052H34.3911L34.0531 30.8363L33.7151 30.3296L33.5462 29.9918V29.654L33.7151 29.3162L35.4049 28.4717L37.7706 28.3028L39.1225 30.1607L37.9396 30.4985L34.56 31.0052ZM40.8123 167.139H40.6433L40.1363 166.802L38.1086 165.45L36.5878 163.93L36.4188 163.423L36.5878 162.917L37.0947 162.748H37.6017H37.7706L38.2776 162.917L40.6433 164.606L40.9812 164.775L41.1502 165.112L41.3192 165.45L40.8123 167.139ZM49.9371 80.3243H49.7682L47.4025 79.6487L46.7265 79.1419L46.5576 78.6353V78.1286L47.7404 75.9328L48.0784 75.7639H48.4163L49.4302 76.7773L50.1061 80.1554L49.9371 80.3243ZM49.7682 39.6192L48.9233 39.1125L48.4163 38.7747L48.2473 37.4235L48.4163 36.9167L51.12 36.2411H51.458L51.7959 36.579V36.9167L51.458 39.4502L51.12 39.957L50.6131 40.1259L49.9371 39.957L49.7682 39.6192ZM45.5437 18.1688L43.6849 17.831L42.84 17.6621L42.5021 17.4931L42.3331 17.3243L42.1641 16.9865L41.9951 16.6486L42.84 15.8041L43.5159 15.2975L44.0229 15.1285L44.1918 15.2975L45.2057 15.973L46.2196 17.3243L46.0506 17.9999L45.8816 18.3376L45.5437 18.5066V18.1688ZM41.3192 40.2948H40.6433L38.1086 39.2814L37.7706 38.9436L38.2776 38.6057L39.6294 38.4369L40.3053 38.268L40.6433 38.0991L41.3192 37.7612L41.6572 37.4235L42.1641 37.2546L43.178 37.4235L43.347 37.7612L43.178 39.1125L42.84 39.4502L42.5021 39.6192L41.6572 39.957L41.3192 40.2948ZM18.5069 141.804H18.338L17.3241 140.96L17.1551 140.622L16.6482 138.595L16.8171 138.426H17.3241L19.3518 138.764L19.5208 138.933L20.0278 139.44L20.5347 140.284L20.7037 140.622L20.3657 141.129L19.3518 141.466L18.5069 141.804ZM23.5763 34.5521L23.4074 34.3832L22.9004 33.5387L22.7314 33.2009L22.5625 32.3564V31.6809V30.3296L22.7314 29.8229L22.9004 29.654H23.2384L24.5902 30.4985L24.7592 30.8363V31.343V31.8497L24.4212 33.8765L23.9143 34.2144L23.5763 34.3832V34.5521ZM44.3608 59.8873L42.671 59.3806L41.9951 59.2117L41.8261 58.8738L41.9951 58.3672L42.3331 58.1982L43.347 57.8605H43.8539H46.3886L46.7265 58.0293V58.5361V59.2117L45.0367 60.0562H44.6988L44.3608 59.8873ZM45.8816 22.7291L43.5159 22.2224L43.178 21.8846L43.009 20.7023L46.7265 20.3645L47.0645 20.5334L47.2335 21.7157V22.2224L46.8955 22.3913H46.5576L46.0506 22.5602L45.8816 22.7291ZM65.4832 2.62989L66.4972 1.9543L67.6801 1.78539L68.525 2.7988L69.2008 2.96771H69.5388L69.2008 3.30548L67.6801 3.4744L65.4832 2.62989Z" stroke="#FCF8E3" stroke-miterlimit="10"/>
</svg>
