<svg width="38" height="46" viewBox="0 0 38 46" fill="none" xmlns="http://www.w3.org/2000/svg">
<path d="M36.6604 36.6513H32.9429L30.5771 39.0159L30.0702 41.8872L26.3526 42.3939L22.6352 39.5226H16.0449L12.3273 42.3939L8.60976 44.7585L4.72325 44.9274V43.914L5.06123 43.2384V42.225L3.87835 35.3L3.54037 34.2866L3.2025 29.3885L3.37144 27.8684L4.0474 24.3215L3.37144 23.3081L2.69548 22.6325L1.85058 21.9569L1.68164 21.788L2.01962 21.4502L2.52654 21.1124L3.37144 20.9435L5.23017 21.1124H6.41305H6.91997L8.10284 20.9435L11.4824 19.5923L12.3273 19.0856L14.524 16.721L15.0311 16.0454L16.2138 13.6807L16.7209 12.3295L16.8898 11.485L16.0449 8.27592L15.876 7.76922L15.538 7.43141L15.2 6.92471L15.3689 5.91131L15.7069 5.2357L16.2138 4.5601L17.2278 4.729L19.2556 4.8979L23.649 1.01318L23.987 4.2223L26.6906 6.58691L27.1975 7.09361L27.8735 8.44482L28.0424 9.12042V10.8094L28.2115 11.6539L28.3804 12.3295L28.7184 12.8362L32.4359 14.0185L33.9567 14.1874V14.863L33.7878 15.3698L32.9429 15.8765L32.4359 16.2143L32.2669 16.8899L32.6049 17.5655L33.1118 18.0722L33.6188 18.7478L33.9567 22.8014L34.2947 23.3081L34.8016 23.9837L34.9706 24.4904L35.1396 25.166V25.8416L34.9706 27.1928V28.544L35.1396 29.7263L35.6465 31.922L36.8294 34.4555L37.3363 35.3L36.6604 36.6513Z" stroke="#FCF8E3" stroke-miterlimit="10"/>
</svg>
