<svg width="79" height="118" viewBox="0 0 79 118" fill="none" xmlns="http://www.w3.org/2000/svg">
<path d="M71.7853 3.34322L71.2784 5.37003L71.1094 5.87674V6.72124V7.39683L72.1233 10.606L73.4751 13.3084L73.6441 13.984L74.489 18.2065L75.8408 24.9625L75.3339 25.6381L73.813 26.9893L72.7992 27.6649L72.1233 28.1716L71.6163 28.8472L71.2784 30.0296V30.8741L71.1094 32.3942V32.9009V34.2521L71.2784 34.7588L71.4474 35.2655L72.1233 36.2789L74.6579 39.3191L78.0375 44.555L78.2066 45.0617L77.3617 48.1019L76.6857 48.6086L75.8408 49.1153L75.3339 49.2842L69.7576 51.1422L68.5747 50.2977L67.5608 50.1287H66.5469L65.871 50.4665L64.8572 51.9867L64.3502 52.8312L64.0123 53.6757L64.1812 54.6891L63.3363 57.0537L59.9567 63.4719L59.2808 64.3164L58.2669 67.0188L58.098 68.2011L57.2531 71.748L57.0841 72.4236L57.2531 72.9303L56.9151 73.4371L56.2392 73.6059L55.3943 73.7749L54.5494 74.2816L53.8735 75.9706L53.5355 77.1529L53.1975 77.8285L52.0147 79.3486L48.8041 82.8955L47.1143 84.4156L45.9314 85.2601L45.7625 89.1448L45.4245 89.8204L44.5796 90.1582L43.5658 92.3539V93.7052L43.7347 94.3807L43.9036 95.0564L44.0727 95.9009L43.2278 98.2655L42.3829 101.812V103.332L42.2138 104.008L41.876 104.515L41.0311 105.021L39.5102 105.19L38.1584 106.879L36.4686 109.413L36.2996 111.102L36.4686 111.778L37.1445 113.129L37.9894 116.169V116.507L35.1168 116.169L30.8923 114.311L29.0335 113.298L25.6539 112.284L25.8229 111.609V110.595L25.4849 109.413L25.1469 108.906L21.9363 105.19L21.4294 104.684L20.7535 104.008L19.9086 103.501L19.2327 103.164L18.3878 102.995L16.529 104.515L15.5151 106.373L13.6564 111.102L9.93878 111.609L8.08005 108.737L6.55919 105.359L6.22121 105.528L5.71429 105.697L2.84162 106.373L1.99672 106.542H1.15182L1.4898 104.515L0.813843 100.968V98.7722L0.982884 98.0966L1.82778 97.0832L4.0245 95.0564L6.05227 92.6917L6.22121 91.1716L6.39025 89.4826L6.89717 88.3003L7.57303 87.2869L9.26282 83.9089L9.43186 80.8687V78.673L9.76984 73.4371L10.6147 70.2279L11.1217 68.7078L11.9666 67.0188L12.8115 65.8365L13.8253 65.3298L15.0082 64.3164L15.5151 60.6006L15.1771 59.0805L14.5013 56.3781L13.8253 52.1555L13.9943 51.48L14.3322 50.8043L14.8392 50.4665L16.191 50.1287L17.3739 48.4397L18.0498 47.0885L17.7118 45.3995L17.3739 44.555L17.2049 43.8794L20.0776 36.6167L20.2465 35.7722L20.5845 32.3942L21.5984 28.8472L20.9225 26.1448V25.3003L21.0914 23.2735L22.2743 21.7534L23.6261 20.74L24.1331 20.4022L24.64 20.2333L25.3159 20.0644L25.9918 19.8955L27.0057 19.7266L29.2025 19.3888L30.8923 19.2199L33.9339 17.362L34.4408 16.8553L35.2857 16.3486L35.7926 16.0108L36.6375 15.673H37.4824L38.1584 15.8419L39.8482 16.0108H40.1862L42.0449 18.5443L45.7625 21.4156L48.1281 18.5443L50.4939 18.0376L51.5077 15.1663H58.6049L58.4359 10.4371H58.9429L59.4498 9.42365L59.6188 7.56574L60.1257 6.21453L61.3086 5.20113L61.8155 4.86332L62.4914 4.52552L63.3363 4.18773L64.1812 4.01882L65.0261 4.18773H66.209L66.7159 4.01882L67.2229 3.68102L68.0678 3.00541L69.0816 2.16091L69.9265 1.65422L70.9404 1.31641H72.2923L72.1233 1.4853L71.6163 2.49872L71.7853 3.34322Z" stroke="#FCF8E3" stroke-miterlimit="10"/>
</svg>
