<svg width="67" height="64" viewBox="0 0 67 64" fill="none" xmlns="http://www.w3.org/2000/svg">
<path d="M62.7836 24.5441L62.1077 24.713L61.0938 24.0374L60.4179 24.2063L59.4041 24.3753L58.3902 24.0374L57.7143 23.3618L57.0383 23.1929L56.3624 23.024L56.0245 23.5308H55.5175L54.6726 23.024L54.5036 22.3484L53.6587 21.6728L52.9828 21.1661L52.3069 21.335V22.0106V22.5173V23.1929L51.9689 23.8685V24.8819L51.462 24.713L50.6171 24.8819H50.1102L49.4342 25.3886L48.7584 24.8819L48.0824 24.713L47.0686 24.3753H46.2237L45.5477 24.713L45.2097 25.7264L44.7028 26.2331L43.689 26.571H42.675H41.9992L40.9852 25.8954H40.6474L40.3094 26.402H39.8025L38.6196 26.0643L37.6056 26.7399L35.9158 26.402L35.071 26.7399V25.7264V24.713L35.24 23.6996L36.0849 23.3618L37.0987 22.3484L36.9298 21.6728L36.4229 21.5039L35.7469 20.9972H34.7331L33.7191 20.3216L32.3673 18.2948L31.8604 18.8015H30.5086L30.1706 17.957H29.4946L29.1567 18.8015L25.6081 18.4637L25.9461 17.4503L28.1428 17.6192L27.8048 16.9436L28.3118 16.0991L27.4669 15.5924L27.129 14.0723L27.2979 13.3967L26.96 12.2144L25.6081 10.8632L24.2563 10.6943L23.7494 9.51196L23.0734 8.83637L22.3975 9.17419L21.8906 7.48518L21.5526 6.47177L22.0596 5.79617L21.8906 4.61385H20.7077L20.3698 3.43152V3.09375L20.2008 3.43152L19.1869 6.30285L18.342 9.68087L17.8351 11.8766L17.4971 12.2144L16.9902 12.3833H16.4832L15.8073 12.2144L15.3004 11.7077L14.4555 11.3699L14.1175 17.1125L13.6106 22.5173L12.9347 24.8819L12.5967 25.7264L12.0898 26.571L11.5829 27.0776L10.5689 27.5844L9.2171 27.9221L8.54124 28.091H8.03422H7.02038L5.1616 27.2465L4.48569 26.9088L3.4718 25.7264L2.45791 26.402L2.11998 27.0776L1.27509 31.4691L1.61301 31.9758L2.28897 32.4825L2.79589 33.1581L3.30281 34.1715L3.4718 35.3538L3.13387 36.5361L2.45791 37.2117L1.61301 38.394L1.27509 39.2385L1.61301 42.9543L3.13387 44.6434L4.82367 47.5146L5.8375 50.0482L6.34442 51.5682L6.6824 52.7506L6.34442 57.3109L6.00649 57.9865L5.49958 58.4932L5.1616 59.3377L5.49958 60.8578H5.66856L6.17548 61.0267L6.85144 61.3645L8.87912 62.7157L15.1314 56.4664L15.4694 55.6219L15.6383 55.1152L15.8073 54.2707L15.3004 53.5951L14.4555 53.2573L13.6106 50.8927L16.4832 46.5012L17.1592 45.6567L17.4971 42.9543L17.1592 42.2787L15.6383 42.1098L15.1314 41.4342L17.3281 38.7318L20.5387 38.2251L21.5526 38.7318L22.5665 39.4074L23.4114 39.9141L26.622 40.7586H28.6497L30.1706 42.4476L30.8465 44.1366L32.3673 46.3324L33.5502 47.008L34.0571 47.1769L34.902 47.3457L35.7469 47.5146L36.4229 47.8525L38.4505 49.5415L38.7885 50.2171L39.6334 51.2305L40.1403 51.5682L43.689 52.2439L46.7306 51.9061L47.4065 51.7372L48.2514 52.075L49.0963 53.2573V54.4396L48.9273 55.2841V56.2975L49.0963 56.9731L49.6033 58.831L49.9412 59.5066L50.7861 60.1822L51.124 59.3377L51.462 58.6621L51.8 58.3243L53.9967 57.3109L55.5175 56.4664L55.8555 56.1286L56.1934 55.1152L58.7281 54.6085L64.3045 54.4396L65.8253 54.7774V53.5951L63.4596 47.8525L62.7836 46.5012L62.4457 45.15L61.9387 43.7989L61.4318 42.2787V41.0964L61.6008 40.083L62.1077 39.5763L62.9526 38.9007L63.2906 35.016L63.1216 34.3404L62.4457 33.4959L61.9387 32.6514L61.2628 30.2868L61.6008 29.2734L62.4457 28.26L62.7836 26.9088V24.5441Z" stroke="#FCF8E3" stroke-miterlimit="10"/>
</svg>
