<svg width="47" height="92" viewBox="0 0 47 92" fill="none" xmlns="http://www.w3.org/2000/svg">
<path d="M5.65871 4.54153H6.50361L7.34851 4.37264L10.2212 3.69703L10.7281 3.52814L11.0661 3.35923L12.5869 6.73725L14.4457 9.60855L18.1632 9.10187L20.022 4.37264L21.0359 2.51473L22.8947 0.994629L23.7396 1.16351L24.4155 1.50134L25.2604 2.00802L25.9363 2.68364L26.4433 3.19034L29.6538 6.90616L29.9918 7.41286L30.3298 8.59516V9.60855L30.1608 10.2842L33.5403 11.2976L35.3992 12.311L39.6237 14.1689L42.4963 14.5067V14.6756V15.8579L42.3273 16.5335L42.1584 17.2091L42.3273 17.8847L42.6653 18.3914L43.5102 18.8981V19.067L43.6791 21.2627V24.4718L43.3412 25.992L43.1722 26.6675L44.6931 29.5389L45.2 30.0456L45.538 30.7212V32.0724L43.8482 35.7882L42.8342 37.1394L41.4824 37.815L40.6375 37.9839L40.1306 37.815L38.1028 38.9973L36.2441 42.3753L35.2301 44.571L34.8923 45.7533L33.7094 49.8069L33.3714 51.6649L33.2025 52.8472V53.5228L34.0474 54.5362V55.5496L32.3576 57.4075L30.6678 57.9142L30.1608 57.4075L28.471 59.2654L28.1331 59.941L27.4571 63.8257L27.2882 67.8793L26.9502 69.5683L26.7812 70.5818L29.8229 78.1823L30.1608 78.689L30.4987 79.1957L31.0057 79.5335L31.8506 79.7024L33.5403 79.5335L34.0474 79.8713L35.2301 81.2225L35.3992 81.8981L34.5543 84.0938H34.2163L33.2025 85.1072L34.0474 89.1608L33.8783 90.1743L31.6816 90.5121L31.0057 90.1743L30.8367 89.4986L30.4987 88.1474L29.8229 87.6407L29.1469 87.4718H28.64H27.964L26.7812 87.3029L25.5984 86.4584V85.7828V84.7694L23.9086 83.756L16.6424 83.9249L15.9665 85.1072L14.7837 86.4584L14.2767 86.7962L9.20735 87.9785H8.19341L7.51755 87.8096L6.33467 87.3029H5.65871L5.1518 87.6407L4.64488 88.1474L4.81382 85.445L5.1518 84.0938L5.32084 83.4182L5.48978 82.2359V79.8713L5.32084 76.4933L4.64488 74.8043L4.13796 71.933V70.244L3.96892 69.5683L2.78614 63.8257L1.94125 60.1099L1.77221 59.6032V58.7587L2.11018 57.2386L2.27912 54.7051L1.94125 53.6917L1.60327 53.0161L1.43423 52.3405L0.927307 48.2869V45.4155V42.7131V41.193L1.26529 36.6327L2.11018 34.7748L2.78614 34.437L3.12402 34.9437L3.96892 35.2815H4.47594L5.32084 34.9437L7.85553 32.4102L8.36245 31.5657L9.54533 25.992L10.7281 24.8096V22.7828L10.0522 22.1072L9.54533 20.4182L9.71427 15.0134L10.0522 12.9866L10.3902 11.9732V11.2976L9.54533 8.76405L9.20735 8.25737L8.70043 7.75066L7.34851 6.73725L6.84159 6.39945L6.33467 6.06165L5.99669 5.38603L5.65871 4.54153Z" stroke="#FCF8E3" stroke-miterlimit="10"/>
</svg>
