<svg width="53" height="47" viewBox="0 0 53 47" fill="none" xmlns="http://www.w3.org/2000/svg">
<path d="M47.3788 40.2626L42.9853 39.587L39.2678 40.0938L37.409 42.965L34.5363 46.3431L29.8049 44.4851L25.5804 40.7694L22.2008 38.4048L19.8351 34.1822L16.1176 32.831L12.4 35.7023L10.0342 35.1956L8.68242 32.831L1.41632 32.1554L1.92324 29.2841L3.61303 27.2573L3.4441 25.3994L3.27511 24.5549L2.5992 23.7104L2.26122 23.0348L2.76814 22.1903L3.10612 21.8524L7.66859 19.6568L9.69636 19.9945L10.3722 18.9812V15.2653L12.062 10.705L12.4 10.0294L13.2449 7.8337L13.9209 5.30019L13.4138 4.28678L14.2587 4.45569L14.9347 4.6246H15.6106H16.2865L16.9625 4.28678L17.6383 3.61118L18.1453 2.76668L19.3281 1.24658H22.8767L23.3837 1.58435L23.7216 3.27336L24.3975 4.6246L25.0735 5.4691L25.7494 5.80687L26.4253 5.97578H27.1012H27.7771L29.6359 5.63796H30.3118L33.8604 6.82029L35.0433 7.32697L35.8882 7.49588L38.0849 6.65138L38.7608 6.31361L39.2678 5.80687L39.9436 5.13128L40.6196 4.79346L41.2955 4.6246L45.1821 4.96237L45.8579 5.13128L46.7028 5.63796L47.3788 6.31361L48.7306 7.32697H50.4204H50.9273L51.2653 8.00261L51.4342 8.84712V9.52271L51.2653 9.69162L50.7584 11.2117V14.4208L51.6033 18.3055L52.4482 21.3458L51.6033 24.386L49.5755 25.7372L48.5617 26.5817L47.8857 29.453L48.5617 30.8042L50.2515 32.4932L50.5893 31.8176L51.4342 32.3243L51.6033 33.5066L50.7584 35.7023L50.4204 36.3779L49.9135 36.5468L49.4066 36.0401H48.8995L47.3788 40.2626Z" stroke="#FCF8E3" stroke-miterlimit="10"/>
</svg>
