<svg width="51" height="35" viewBox="0 0 51 35" fill="none" xmlns="http://www.w3.org/2000/svg">
<path d="M10.9412 1.95965L13.3069 2.97307L17.1934 2.80416L18.7143 5.67549L21.7559 7.02668L23.7837 9.89801H26.1494L28.1771 9.39133V8.209L28.3461 7.53341L31.5567 3.81757L33.5844 2.6353L34.2604 2.80416L35.9502 2.6353L36.964 1.95965L39.8367 0.946289H40.6816L41.5265 1.28406L42.0334 1.79079L43.0474 4.9999L42.8783 6.51999L44.5681 7.02668L45.075 6.85782L45.751 6.35108H46.427L46.7648 6.68891L47.1028 7.87118V9.7291L47.2719 10.4047L48.1168 11.2492L49.2995 11.7559L49.9755 12.2626L50.1444 12.7693V13.4449L49.9755 13.7827V15.4717L50.1444 16.823L47.6097 20.5387L45.5821 24.2546L44.0612 29.8283L42.5403 34.0508H42.3714L41.0196 33.8819L36.6261 33.3752L33.9224 31.3484L32.9086 30.335L32.4016 29.9972L25.6424 27.9704L24.7975 27.8015H24.1216L19.8971 28.1393L17.8694 29.8283V30.5039L18.0383 31.5173L14.3208 30.8417L10.6033 30.6728L8.06857 29.9972L4.68898 28.646L3.84408 27.4637L2.49227 25.7747L1.98524 25.4369L1.30939 25.0991L1.47833 23.9168L1.81631 20.0321L1.64737 18.3431V17.1607L2.15429 16.3162L2.99918 15.8095L3.16812 15.1339V13.6138L2.99918 11.4181L2.49227 10.7425L2.32322 10.2358V9.22242L5.1959 3.98648L5.87186 3.14198H7.05463L7.73059 3.64866L8.57549 3.81757L9.42039 3.98648L10.2653 2.97307L10.9412 1.95965Z" stroke="#FCF8E3" stroke-miterlimit="10"/>
</svg>
