<svg width="79" height="121" viewBox="0 0 79 121" fill="none" xmlns="http://www.w3.org/2000/svg">
<path d="M6.12489 108.238L5.61797 108.745H5.111H4.43509H4.09717L3.5902 108.914L3.25227 109.083L2.40737 109.758H2.23838L1.9004 109.59L1.0555 108.238L0.886512 107.901L0.717574 107.563L0.548584 107.225V106.718L2.57631 105.705H2.91429L4.94206 106.718L5.111 106.887L5.61797 107.563L6.12489 108.238ZM35.5273 72.9381V74.1204H35.0204L34.8515 73.2759L34.6824 72.9381L34.5135 72.6003L34.1755 72.2625L31.9788 71.0802L31.6408 70.9112L30.7959 70.7424L30.4579 70.5735L29.782 68.7156V68.3777L30.12 68.2089H30.6269H31.4718L31.9788 68.3777L32.4857 68.7156L35.5273 72.9381ZM24.2057 50.3054L23.6988 50.981H23.0228L22.3469 50.4743L21.84 50.3054L21.502 50.981L22.3469 51.8255L24.5437 52.67L25.2196 52.1633L26.2334 51.4877L28.7681 49.9676L31.1339 49.6298H31.8098L33.4996 50.8121L32.9926 55.0346L34.8515 57.9059L34.5135 58.9193L33.8375 59.0882L33.6686 59.7638L34.0065 60.6083L35.6964 61.6217L36.3722 61.7906L37.0482 63.6485L36.7102 64.8309L36.3722 65.5065L33.8375 66.182L32.4857 66.0131H31.9788L30.289 66.8576L29.782 67.1955L29.4441 67.8711L29.2751 70.5735L30.12 71.418L30.7959 71.7558L31.1339 72.2625L28.5992 73.2759L27.2473 72.0936L27.7543 70.7424L26.9094 70.9112L26.2334 72.2625L26.5714 75.3027L31.1339 79.863L32.3167 80.2008L33.6686 81.2142L34.0065 81.7209L34.3444 83.4099L34.1755 84.0855L32.3167 84.4233H31.4718L30.6269 84.93L30.4579 86.2812L31.1339 87.1257L32.3167 88.1392L32.4857 88.6458L33.3306 90.166L34.0065 91.0105L34.3444 92.0238L33.8375 92.5306L28.4302 92.0238L27.4163 92.3617L27.7543 95.0641L28.2612 95.7397L28.9371 96.2464L29.4441 97.4287L28.9371 100.3L28.4302 100.469L25.2196 101.145L24.3747 100.469L23.6988 99.7933L23.0228 99.6244L20.8261 99.4555L18.2914 99.1177L15.2498 98.2732L13.0531 97.0909L12.5461 96.7531L12.2082 96.0775L13.898 91.5172L16.2637 88.8147L15.9257 87.8013L16.6016 87.1257L17.6155 84.4233L18.4604 76.6539L18.2914 74.2893L17.7845 72.6003L17.4465 72.2625L16.7706 71.9247L17.1086 69.2222L17.6155 63.3107L17.7845 62.804L18.2914 62.1284L18.7984 61.4528L19.9812 60.4394L20.6571 57.9059L21.502 53.0078L20.6571 51.1499L20.3192 50.4743V49.7986L21.1641 48.4475L24.0367 48.6164L24.2057 50.3054ZM27.4163 0.986328L34.6824 1.66192L36.0342 4.02657L38.4 4.53326L42.1176 1.66192L45.8351 3.01316L48.2008 7.23568L51.5804 9.60028L55.8049 13.3161L60.5363 15.174L63.409 11.796L65.2678 8.92469L68.9853 8.41795L73.3788 9.0936V10.4448V11.2893L72.8719 12.6405L72.3649 13.3161L71.8579 13.8228L71.1821 14.4984L70.6751 15.3429L71.52 17.8764L73.0408 21.2544L73.3788 22.6057L72.8719 24.2947L73.3788 25.8148L72.8719 31.5574L72.7028 32.4019L72.3649 33.2464L72.027 35.2732L72.1959 36.2866L72.8719 37.8067L73.2098 41.5225L72.1959 43.2115L71.689 43.8871V44.7316L73.2098 48.4475L74.7306 51.4877L75.0686 52.3322L75.4066 54.1901V55.8791L76.0824 56.8925L76.2515 58.9193L75.0686 60.1016L72.027 61.6217L71.351 61.4528L71.1821 60.6083L70.8441 60.1016L69.9992 59.9327L69.4923 60.2705L68.9853 60.7772L66.7886 65.1686L67.2955 66.182L68.4783 67.1955L68.8163 67.8711L67.1265 72.9381L66.7886 73.6137L66.6196 74.2893L66.4506 74.9649L66.7886 77.4984L67.1265 79.1874V80.5386L67.2955 83.5788V84.4233L67.1265 85.4367L66.2816 86.4501L66.1127 87.1257V88.8147L66.6196 89.8282L67.6334 91.5172L68.3094 92.0238L69.6612 92.5306H70.6751H71.351L72.8719 92.6995L73.7168 92.8684L76.0824 94.2196L76.2515 97.5976L76.0824 98.2732L75.5755 98.611L74.7306 98.4421L72.3649 99.2866L71.52 101.313L71.351 103.509L73.3788 105.029L76.9273 108.407L77.2653 110.603L76.9273 111.447L75.4066 112.461L74.8995 112.63L74.3926 112.968V113.981L75.5755 115.839L76.9273 117.359L75.0686 116.514H74.2237L70.8441 118.203L70.5061 119.555L67.1265 119.892L66.9576 118.541L66.4506 117.697L65.6057 116.683L64.9298 116.177L63.9159 116.008L63.409 115.839L61.5502 112.799L61.3812 111.447L60.1984 110.941L59.3535 111.447L58.3396 112.461L57.4947 113.643L57.1567 114.994L52.4253 114.15L50.9045 113.812L50.3975 113.474H48.8768V111.785L48.5388 112.968H48.2008L47.5249 112.799L46.68 111.785L45.4972 111.954L44.4832 112.63L44.3143 111.447L44.4832 107.563L42.7934 103.678L42.6245 102.834L43.4694 98.611L43.9763 97.9354L44.8212 97.2598L45.4972 96.922L46.0041 96.5842L46.511 96.4153L47.3559 96.0775V93.7129L47.0179 92.3617L47.187 91.5172L48.2008 89.6592L49.0457 88.6458H49.8906L51.5804 89.8282V85.4367L50.9045 84.5922L50.2286 84.0855L49.5526 83.4099L49.2147 82.3965L48.8768 80.5386V78.8496L49.0457 74.2893L49.8906 72.0936L50.3975 71.9247L52.5943 72.0936L53.2702 72.2625L53.7771 72.9381L55.6359 74.1204L56.3118 74.2893L56.6498 73.9515L55.9739 72.9381L54.791 72.6003L53.9461 72.2625L52.9322 71.418L49.0457 65.3375L50.2286 63.9864L51.4114 63.1419L54.96 61.9595L55.8049 62.2973L56.4808 63.6485V64.3241L58.6776 70.7424L59.0155 71.0802L59.3535 70.4046L59.1845 68.04L58.3396 63.8174L58.0016 62.4662L57.6637 60.1016V59.2571L57.8327 58.0748L58.0016 57.2303L58.1706 56.3858V55.3724L57.6637 55.0346H56.6498L55.8049 56.048L54.2841 56.8925L51.2424 56.3858L49.3837 55.3724L48.3698 54.0212L48.5388 53.1767L49.8906 51.1499L53.6082 47.434H54.622L55.4669 47.603L58.0016 46.9274L59.6914 46.0829L61.0433 44.9005L61.3812 44.3939L61.8882 37.9756L61.0433 38.3134L60.1984 44.056L59.6914 45.0694L58.0016 45.914L55.4669 46.7585H54.622L54.1151 46.5895L53.1012 45.745L52.4253 43.5494L51.5804 42.367L50.0596 40.5091L49.2147 40.0024L47.0179 39.4957L45.1592 40.0024L44.3143 40.3402L42.6245 42.5359L42.9625 43.8871L43.4694 44.2249L43.8074 46.0829L42.1176 47.7719L40.5967 48.9541L39.7518 49.1231L38.062 48.7853L37.2171 48.6164H35.6964L35.1893 48.7853L34.0065 49.292L33.3306 49.4609H32.9926L31.4718 48.4475L28.5992 47.9408H27.4163L27.7543 45.4073L28.7681 43.7183L29.2751 43.3804H30.12L30.9649 43.5494L31.8098 43.2115L33.3306 40.3402L32.6547 41.0158L32.1477 42.0293L31.6408 42.7048L30.9649 42.8738L28.0922 42.5359L26.5714 41.5225L24.3747 38.8201V37.6378L24.8816 36.6244V34.4287L24.5437 33.2464L23.6988 30.8818L22.8539 29.8684L22.5159 29.0239L22.009 25.9837L21.502 22.4368L22.6849 19.0587L25.3886 11.6271L26.4024 10.107L27.4163 8.08018L27.2473 6.89786L26.5714 5.20885L27.4163 0.986328Z" stroke="#FCF8E3" stroke-miterlimit="10"/>
</svg>
