<svg width="62" height="56" viewBox="0 0 62 56" fill="none" xmlns="http://www.w3.org/2000/svg">
<path d="M44.1494 53.2895L43.3045 52.445L42.9665 51.4316L42.7975 50.5871L41.9526 50.2493H41.4457L40.9388 50.5871L39.08 52.9517L38.911 53.7962V54.4718L38.2351 55.3163L37.2212 55.1474L34.8555 53.7962L34.3485 53.2895L31.8138 51.0938L29.7861 50.4182L28.2653 49.7426L27.4204 49.2359L26.9135 48.7292L26.5755 48.0536L25.8995 46.7024L24.3788 46.5335L23.8719 46.7024L23.1959 46.8713H22.689L21.3372 46.5335L20.9992 46.1957L20.8301 45.689L20.4923 45.0134L18.6334 42.9865L18.4645 43.831V44.5067L16.7747 46.3645H13.7331L13.0571 46.1957L8.49466 43.831L4.94613 40.7908L4.77709 39.7774L4.43921 39.4397L1.73547 38.2573L2.24239 37.9195L3.42527 36.7372L5.95996 34.0348L6.29794 33.3592L6.46688 32.5147V31.5013L5.95996 30.1501L4.94613 27.6166V26.7721L5.45305 26.0965L6.46688 25.5898L8.15668 24.2386L9.67754 20.3538L10.5224 17.8203L10.8604 17.1447L11.8742 15.9624L12.7191 15.4557L13.564 14.949L14.9159 13.5978L15.4229 12.5844L15.5918 11.2332V10.3887V9.37528V8.53078L15.7608 7.01068L17.1127 4.13935L17.6196 3.63267L18.1265 2.95707L18.6334 1.26807L19.3094 1.60584L19.8163 1.94366L21.1681 3.63267L22.013 4.81499L25.3926 6.16618L27.9273 6.84177L31.6449 7.01068L35.3625 7.68628L35.1934 6.67286V5.99727L37.2212 4.30826L41.4457 3.97049H42.1216L42.9665 4.13935L49.7257 6.16618L50.2326 6.504L51.2465 7.51737L53.9502 9.5442L58.3436 10.0509L59.6955 10.2198H59.8645V10.3887V11.571V12.5844L60.0334 13.26L59.8645 14.6112L59.5265 15.2868L57.8367 16.1313L57.1608 16.3002H56.3159L55.8089 16.4691L55.302 17.3136V18.1581L55.64 19.0027L55.978 19.3404L58.6816 21.0294L59.3576 25.4209L59.1885 28.2922L58.8506 28.9678L59.0196 29.9812L59.8645 31.8391L60.5404 34.0348L59.6955 34.7104L59.0196 35.8927L58.8506 36.5683L59.0196 38.9329L59.3576 41.9732L58.6816 43.831L58.3436 44.3378L57.6678 44.6755H56.8229H54.7951L51.9224 47.8847L51.5845 50.0804L52.0914 51.4316L51.7535 52.1072L45.8392 54.3029L45.1633 54.134L44.1494 53.2895Z" stroke="#FCF8E3" stroke-miterlimit="10"/>
</svg>
