<svg width="223" height="287" viewBox="0 0 223 287" fill="none" xmlns="http://www.w3.org/2000/svg">
<path d="M18.3657 24.5279L17.6898 26.2169L16.338 24.359L14.4792 21.9944L13.6343 21.3188L14.1412 22.8389L13.9722 23.5145L11.9445 26.3858L11.2686 26.048L9.91674 23.8523L9.40982 23.1767L8.22695 23.5145V25.2035L9.24083 27.737L9.74775 28.5815L10.2547 29.0882L11.0996 30.2705L11.9445 31.7906V32.1284H11.7755L11.0996 31.6217L9.24083 29.0882L8.39594 27.2303L8.05796 26.2169L6.70614 24.0212L6.19922 23.8523L5.69225 24.0212L4.84735 25.2035V27.2303L5.01634 28.4126L5.69225 30.4394L6.36816 29.9327L7.21306 29.5949L8.22695 30.6084L9.07184 32.1284L9.57881 34.6619L9.07184 36.8576L10.9306 41.4179L12.6204 44.9649L14.8171 46.6539L15.662 46.8228L16.338 43.4448L16.8449 38.5466L16.169 37.7021L15.831 36.6887V35.3376V33.4796V32.4662L16.6759 31.4529L16.8449 32.9729L17.1829 33.8174L19.0416 32.4662L21.7453 29.2571L23.2661 27.2303L24.28 26.8925L21.2384 31.115L19.8865 32.2974L18.8727 33.3107L18.0278 38.8844L18.8727 42.6003L18.3657 46.1471L18.1967 47.8362L18.8727 48.8496L19.7176 48.6807L21.7453 46.9916L22.4212 46.6539L23.0972 46.8228L24.28 48.3429L23.4351 47.8362L22.9282 47.4984L22.2523 47.8362L20.7314 48.8496L20.0555 49.5252L19.3796 50.8764L19.8865 51.552L21.7453 52.5655H22.0833L24.111 52.3965L24.9559 52.2276L26.9837 50.3697L28.5045 48.5118L28.8425 48.0051L30.0253 40.9113L29.8564 38.5466L29.3494 37.3644L28.6735 36.6887L27.1527 37.0266V37.8711L27.3217 38.5466L25.8008 40.2356V39.2223L26.9837 36.6887L28.1666 35.3376L27.6596 33.6485L27.8286 32.2974L28.3355 31.2839L28.8425 29.5949L29.5184 25.0345V21.9944L29.3494 21.1498L28.5045 17.2651L28.6735 12.7048L28.5045 11.8603L27.9976 10.1713L27.3217 4.76645L26.9837 3.2464L22.0833 2.06408L19.7176 2.73972L16.338 5.10427L14.6482 6.45546L14.3102 8.14446L15.1551 10.678L16.5069 13.5493L17.0139 14.3938L17.5208 14.7316L18.3657 15.5761L19.8865 17.434L18.3657 24.5279ZM18.3657 24.5279L19.2106 18.4475V17.9408L19.0416 16.5895L17.6898 15.0695L17.0139 14.5628L13.4653 14.3938L11.9445 16.4206L11.6065 16.9273L10.9306 18.1097L10.7616 18.6163V19.292L11.7755 19.9675L15.3241 21.1498L17.5208 23.8523L18.0278 24.19L18.3657 24.5279ZM59.9347 130.429H59.4278L58.5829 130.26L57.738 128.233L57.4 123.842L57.2311 119.619L56.7241 116.241L56.3862 115.396L55.2033 114.214L55.3722 115.059L56.0482 117.085L56.3862 119.112L57.569 131.949L57.4 133.3L56.7241 133.638L55.8792 133.131L51.1478 129.077L50.6408 128.402L50.3029 127.22L50.4718 125.699L49.7959 123.166L48.782 120.295L49.9649 119.619L50.1339 120.463L51.9927 124.686L53.8515 127.726L54.6964 127.388L52.8375 123.335L50.1339 117.254L50.9788 116.748L51.8237 116.241L52.8375 114.89L49.289 115.903L47.2612 118.606L45.7404 115.734L45.0645 113.032L43.5437 112.694L42.3608 112.187L41.8539 104.925L42.0229 104.08L42.5298 102.729L44.7265 103.405L47.2612 106.276L47.9372 107.796L49.12 110.836L49.458 112.525L49.7959 112.356L49.9649 111.343L47.5992 104.249L45.5714 96.6485L46.5853 95.9729L47.4302 97.3242L47.5992 98.3375L47.0923 94.115L46.5853 93.4394L45.9094 93.7772L43.5437 96.6485L42.8678 97.1552L42.3608 97.3242L37.9674 95.9729L36.9535 95.1284L36.4466 90.9059L34.9258 89.8925L34.4188 89.3858L34.0809 85.3322L34.5878 84.3188L35.6017 83.4743L36.6155 83.1365H42.1919L42.6988 83.4743L43.5437 84.8255L45.2335 80.0963V76.2116L45.9094 75.1981L47.9372 74.5226H48.782L50.1339 75.5359L50.4718 76.7183L51.1478 77.2249L51.8237 75.5359L50.3029 74.0158L49.12 73.8469L48.1061 73.5091L46.4163 71.6512V70.8067L46.9233 69.9622L47.4302 69.7933L48.2751 69.6244L48.951 69.2866L49.289 68.7799L50.1339 65.5707L45.7404 69.9622L45.4025 70.8067L44.7265 73.1713L44.0506 76.3804L44.2196 77.2249L44.3886 78.2383L44.2196 78.9139L41.6849 81.4475L41.178 81.7853L38.8123 81.4475L36.9535 79.2518L35.9396 76.7183L34.2498 72.8336L32.898 68.1042L34.7568 67.4287L36.9535 68.2732L37.6294 68.7799L38.1364 69.2866L38.6433 69.7933L39.3192 70.1311L42.5298 70.6378L41.347 69.7933L40.1641 69.4555L38.1364 67.9354L37.1225 66.5842L33.067 66.2464L28.6735 63.2062L23.4351 57.9702L23.2661 56.788L23.7731 55.7745L24.618 54.7611L25.8008 53.9166L27.9976 53.0721L29.3494 53.5788L31.3772 53.41L32.729 55.099L33.236 56.2812L34.9258 58.1392L40.671 60.8415L42.1919 61.1794H42.6988L43.0368 60.8415L36.6155 57.8013H36.1086L35.6017 57.4635L34.9258 56.619L31.0392 49.5252L31.2082 48.0051L31.7151 47.1606L33.4049 47.3295L34.5878 47.6673L36.9535 50.2008L42.5298 52.5655V51.3831L42.1919 50.3697L39.6572 49.1874L37.4604 48.3429L32.729 45.8094L32.0531 44.796L31.5462 42.2624L34.0809 40.9113L35.4327 40.4046L36.6155 40.2356L37.2915 40.5734L38.3053 40.4046L38.4743 39.2223L35.4327 39.7289L33.236 40.2356L32.729 40.0668L32.2221 38.5466L32.0531 36.6887L32.2221 35.8442L34.0809 33.9864L37.2915 32.9729L37.7984 32.804L41.178 33.6485L41.5159 34.4931L42.0229 36.5199L42.6988 37.7021L43.5437 38.2089L44.2196 38.3777L45.7404 40.0668L46.4163 42.2624L46.7543 41.0801L46.2474 39.3911L45.5714 38.0399L45.0645 37.5332L43.2057 37.3644L42.5298 34.8309V32.804L41.5159 32.1284L39.6572 32.2974L37.1225 31.4529L36.7845 30.9461L36.4466 28.4126L37.2915 23.3455L37.6294 22.8389H38.3053L39.1502 23.6834L39.4882 24.5279L39.9951 25.3724L41.178 26.048L41.8539 26.2169L42.6988 25.879L43.0368 25.7102L42.1919 25.5413L41.6849 25.2035L40.3331 23.0078L39.6572 17.0963L39.9951 16.4206L40.84 15.4073L41.178 14.9005L41.6849 14.5628H42.5298L43.2057 15.0695L43.7127 15.5761L44.5576 15.745V14.9005L43.0368 14.056L39.4882 14.3938L39.3192 15.914L39.4882 19.292L37.7984 22.3322L36.7845 25.3724L36.6155 27.3992L35.7707 32.4662L35.2637 33.3107L34.7568 33.4796L34.0809 33.1419L31.5462 29.5949L31.0392 26.3858V19.7987V12.5359L30.7013 11.3536L30.1943 10.1713L29.8564 8.31343V7.1311L30.0253 6.2866L31.5462 3.92194L32.56 4.59759L33.236 4.93541L33.7429 4.76645L34.7568 4.09091L35.4327 3.75308L37.4604 3.92194L38.9813 4.59759L47.2612 11.8603L53.0065 16.7585L60.1037 22.8389L60.4416 23.1767L62.4694 23.6834L61.2865 25.0345L54.3584 25.2035H53.3445L51.4857 30.1016L50.4718 33.6485L50.8098 34.3241L52.1616 36.0131L53.8515 42.9381L53.3445 43.6136L52.4996 44.4581L51.8237 45.3026L51.1478 48.5118L52.1616 49.5252L52.8375 50.0319L53.3445 50.7075L53.1755 51.8898L52.4996 52.7343L51.9927 53.9166L51.6547 55.099L51.9927 56.1123L54.0204 57.8013L56.0482 59.4903L56.3862 59.997L56.7241 60.6727L57.738 63.0372L58.076 64.0507L58.4139 69.4555L58.9209 73.1713L60.2727 78.5761L60.7796 79.2518L61.2865 79.5896L61.9625 79.7584L62.6383 79.5896L63.4832 79.2518L64.3281 78.7451L65.173 78.0694L66.525 76.2116L67.0319 75.7048L67.8768 75.1981L70.4115 73.8469H71.0873L71.7633 74.5226L72.1013 75.0292L72.6082 75.3671L73.4531 75.7048L74.298 75.5359L74.8049 75.1981L75.3118 74.1847L75.8188 73.5091L76.3258 73.1713L77.0016 73.0024L79.8743 73.3402L81.7331 74.8603L81.5641 75.7048L80.7192 77.7316L80.8882 78.5761L81.7331 79.4206L82.24 80.2651L82.9159 81.4475L83.2539 82.292L82.747 88.2035L82.409 89.048L81.2261 89.2168L79.7053 92.0882L80.2123 94.115L80.7192 94.9595L81.3951 95.4662L82.24 95.9729L83.2539 97.3242L82.9159 98.3375L82.24 99.0132L81.7331 100.027V101.884V103.405L80.8882 106.783L80.3812 107.289L79.7053 107.796L82.409 114.89L83.0849 115.228L84.2678 115.396L84.9437 115.734L85.4506 116.072L86.1266 116.579L87.3094 117.592L90.351 121.139L90.689 122.153V123.504L91.5339 126.713H96.7722H107.925H127.189H134.962H137.665L139.017 127.22L143.242 129.246L150.508 132.456H154.732H156.084L160.984 134.482L161.998 134.989L163.35 136.002L165.885 137.86L168.251 138.198L170.109 138.536L171.799 138.874L175.179 139.718L175.01 141.576L174.165 139.887L173.489 139.549L169.433 138.874L166.561 138.705H166.054L163.012 138.198L161.998 137.86L161.491 137.523L160.478 136.678L159.971 136.171L158.788 135.496L157.943 135.158H157.098H156.591L155.239 135.327L151.015 137.185L150.339 137.691L150.001 138.367V139.549L149.832 142.252L148.142 144.954L147.635 145.799L146.452 146.981L146.114 147.657L145.607 147.994L143.073 147.657L142.397 146.981L139.862 147.488L134.455 149.852L133.779 150.19L126.006 154.919H125.161L121.443 155.426L118.402 155.933L117.557 161.675L117.895 162.858L118.402 163.364V166.236L116.543 171.641L116.036 172.485L115.529 173.161L115.191 174.005L115.022 175.187L114.177 181.943V183.295V184.308L114.515 185.659L114.853 186.673L115.191 188.024L115.36 189.206L115.529 190.726L115.36 192.077L114.515 197.313L114.008 198.327L112.825 199.847L108.263 201.874L107.08 202.38L103.025 200.354L102.349 200.185L101.335 200.016H100.152H99.6449L98.6311 199.847L97.1102 199.34L93.3927 196.638L91.3649 196.131L88.6612 195.287L87.1404 194.442L82.9159 190.051L81.5641 187.855L80.3812 185.997L79.8743 184.984L79.0294 182.957L79.7053 179.579L83.0849 176.539L87.1404 177.045L87.8163 178.903L87.9853 179.748L87.8163 181.268L87.4784 182.281L85.9576 183.295L84.2678 184.139L85.1127 184.477L87.1404 183.801L87.9853 183.295L89.3372 182.281L89.5061 181.437L89.3372 180.086L89.1682 178.397V177.552L89.3372 176.201L89.8441 175.356H92.8857L93.5617 176.201L94.7445 183.632L94.4066 184.646L93.8996 185.153L93.0547 185.828L90.858 187.179L90.1821 187.517L89.3372 188.193V189.375L89.5061 189.544L90.689 188.868L93.5617 187.686L94.2376 187.179L95.2515 185.153L95.0824 182.45L94.7445 180.423L94.9135 177.89L95.5894 175.019L101.842 171.641H102.518H103.193L103.869 171.472L104.376 171.134L104.883 170.796L105.39 170.289L110.122 161.844L110.46 160.831L109.277 158.804L107.249 158.128L104.883 157.959L98.8 161.338L93.7306 164.547L91.7029 166.236L91.3649 167.249L88.8302 171.134L87.4784 171.472H86.8025L85.9576 170.965L85.4506 170.289L84.9437 169.445L84.4368 168.6L83.9298 168.094L81.9021 167.418L76.8327 168.769L76.1567 169.614L78.1845 169.276H80.5502L84.2678 172.485L84.7747 173.498L84.4368 174.174L81.0572 175.187L80.2123 175.019L79.3674 174.174L77.6776 173.667L76.4947 174.343L77.1707 175.356L78.0156 175.694H78.5225L79.1984 176.032L76.8327 180.761L75.9878 181.099L74.8049 180.761L74.129 179.748L73.7911 179.241L73.96 180.761L75.9878 183.126L76.6637 182.619L77.3396 182.45L79.8743 186.166L80.2123 187.179L79.8743 187.855L77.5086 188.193H77.1707L76.4947 187.348L71.7633 183.464L68.5526 181.606L66.6939 180.254L66.187 179.41L63.6523 177.383L63.1454 177.214H62.4694L61.7934 177.045L60.1037 175.525L58.076 172.485L63.4832 172.823L65.3421 172.485L66.6939 172.654L69.0597 174.512L70.7494 177.383L71.2564 177.89L72.2702 177.721L72.6082 175.694L71.2564 174.512L70.2424 173.33L71.0873 171.641L72.1013 171.978H73.4531L72.2702 171.134L70.5804 170.796L69.9046 170.965L69.2286 171.641L68.5526 171.809L66.525 169.952L67.2008 169.107L67.5388 168.769L68.0457 166.911L67.0319 165.56L66.3559 163.195L66.187 160.155L67.2008 158.804L71.9322 155.764L75.1429 157.791L78.0156 158.635L79.0294 158.297L81.9021 155.764L84.7747 152.386L85.1127 151.541L88.9992 151.035L91.7029 153.061L92.8857 153.399H94.2376H95.9273L96.7722 153.23L97.4482 153.061L98.2931 152.724L101.673 151.035L100.659 148.501L99.9829 147.994H98.969L98.462 148.163H97.7862L94.7445 147.657L91.1959 146.812L86.1266 146.136L82.578 146.305L81.7331 146.474L80.8882 147.488L80.2123 149.008L79.0294 151.879L75.9878 149.346L77.1707 147.657L77.8465 147.15H78.5225L79.5363 146.643L79.0294 145.968L76.4947 146.812L75.9878 147.319L73.96 147.657H70.0735L67.5388 150.866L67.8768 151.372L69.5666 150.19L72.6082 151.372V152.217L70.7494 154.919L69.7355 156.102L68.2148 157.453L66.6939 157.791L66.0179 157.959L65.3421 158.804L64.8352 159.817L65.6801 162.351L66.3559 165.053V166.742L65.6801 168.263L63.1454 169.107L62.9763 169.276L62.1314 169.783L60.2727 169.952L57.569 168.769L54.3584 165.729L57.738 163.195L59.5967 161.169L56.7241 160.831L51.9927 157.791L53.1755 156.777L55.3722 156.946L55.8792 157.622L59.5967 157.115L59.0898 155.933V154.413L62.8074 146.136L63.8212 145.63L65.849 145.968L67.2008 146.305L67.8768 146.474L67.2008 145.63L65.0041 145.123L64.3281 144.954H63.6523L61.7934 145.292L61.1176 145.968L61.4556 147.994L61.2865 148.839L58.9209 152.386H58.076L57.569 152.048L57.4 151.203V149.514L56.7241 149.177L56.2171 149.514L53.5135 151.879L52.1616 153.23L51.3167 154.75L50.9788 155.595L48.951 154.581L49.12 149.683L50.4718 147.994L51.4857 147.657L52.1616 147.994L52.4996 147.319L51.3167 146.981L50.9788 146.136L49.7959 142.59V141.407L50.1339 140.732L50.8098 140.901L51.4857 141.069L52.1616 139.043L51.6547 135.327L50.1339 132.793L48.2751 129.922L47.9372 128.909L48.1061 127.557L48.782 127.051L49.458 127.726L49.7959 129.077L52.6686 133.638L53.3445 133.807L54.5273 132.962L57.4 134.82L57.9069 134.989L59.2588 134.651L59.7658 134.145L60.4416 132.456L61.6245 130.598L63.3143 129.753L65.0041 128.909L65.849 129.077V131.78V133.638L67.7077 136.002L68.7217 136.509L69.5666 135.496L70.9184 130.091L70.5804 128.571L69.7355 129.415L68.8906 131.442V132.456L68.2148 134.145L66.525 132.962V129.584L68.5526 124.517L69.9046 123.842L72.4392 125.699L71.7633 128.74L72.7771 130.429L73.7911 130.935L74.298 131.442L75.4809 133.638L75.9878 134.82L74.9739 139.549L74.129 140.563L70.9184 141.914L66.3559 144.785L67.0319 145.123L68.8906 144.447L73.2841 142.758L74.636 141.914L76.8327 139.718L77.3396 135.327L77.0016 134.482L75.3118 132.456L72.9462 129.415L72.6082 126.037L73.4531 125.362L76.1567 125.868L76.8327 125.531L77.3396 125.024L77.6776 124.348L77.3396 119.281L76.4947 116.917L72.7771 112.525L71.4253 111.343L70.7494 111.005L69.7355 110.836H68.5526L66.525 109.992L63.1454 107.796L62.6383 106.951L61.6245 106.107L60.6107 106.276L58.5829 106.783L57.9069 107.627L58.2449 108.303L59.2588 108.64L59.7658 108.472L60.7796 107.796L62.8074 108.472L64.8352 109.654L67.8768 112.356L71.2564 115.734L71.7633 116.072L74.4669 116.917L74.9739 117.592L74.636 119.45L73.1151 121.139L70.9184 121.308L69.2286 120.126L68.7217 118.774L64.8352 116.917L60.1037 113.37L58.5829 112.356L57.569 112.525L58.9209 116.241L59.7658 116.748L60.6107 116.917H61.2865L62.1314 116.579L62.9763 117.085L63.6523 117.761L64.4972 119.112L62.9763 121.646L62.4694 121.984L61.4556 122.153L59.7658 122.659L62.6383 122.321L64.1592 121.139L65.0041 120.632L65.849 121.139L66.187 122.153L65.3421 122.997L63.6523 123.673L62.1314 124.348L60.9485 125.193L60.6107 126.206L59.9347 130.429ZM169.265 238.863V242.917L169.095 243.086H168.927H168.589L168.251 242.917L167.744 242.41L166.899 241.397L166.392 241.059L163.181 239.539L164.195 241.228L164.533 241.565L164.871 241.903L165.378 242.241L166.392 242.579L166.73 243.423L166.223 244.099L165.378 244.437L161.66 245.281L159.126 245.619H158.619L158.112 245.45L149.325 242.241L147.635 241.565L145.1 240.214L144.931 239.201L145.1 238.694L145.776 237.85L145.945 237.343L145.776 234.809H145.438L143.58 236.161L143.411 238.694L142.904 239.539L134.455 241.397L131.413 241.565H130.568L129.723 241.397L129.047 241.059L128.709 240.214V238.863L129.047 238.187L129.554 237.512L130.906 235.316L131.075 234.809L130.737 234.64L128.709 237.343L128.033 238.694L127.865 239.37V239.708L127.189 240.045L126.344 239.708L121.612 239.37L119.078 240.721H118.74H118.402L117.557 240.552L117.05 240.214L116.712 239.708L117.895 238.187L118.233 237.85L118.571 237.681L119.584 237.512L120.26 237.174L121.781 236.33L123.809 234.978L124.316 234.64L125.668 232.614L125.837 232.107L125.668 231.938H125.161H123.64L123.302 232.107L121.612 233.796L121.95 234.134L122.626 234.472L122.457 234.809L121.274 235.485L119.078 236.33L117.388 236.836L115.022 236.667L114.515 235.316L114.853 235.147H115.867L117.726 234.472L118.064 234.134L117.726 233.796H117.388H117.05L115.529 234.303L114.008 235.654L112.149 238.019L111.473 238.187L111.305 237.85V237.343L111.473 236.836L111.642 236.498L111.98 235.992L112.149 235.654L112.318 235.316L112.994 232.614V231.769L111.98 231.6L111.305 232.107V232.614L111.136 233.12L110.798 233.627L108.263 235.147L107.925 235.316L105.728 234.303L105.221 233.965L105.052 233.627V233.12L105.39 232.783H105.728L106.066 231.431L105.897 229.911L104.207 227.547H103.7L102.518 228.898L100.659 233.627L100.49 234.472H100.152L99.8139 234.303L95.9273 231.431L95.5894 231.094H94.9135L94.2376 231.431L93.2237 232.276L92.7168 232.951L92.2098 233.12L90.351 233.458H90.0131L89.5061 233.289L89.1682 232.951L88.8302 232.107L88.3233 229.742L88.1543 227.378L88.3233 225.52L88.6612 225.182H88.9992L90.351 225.689L91.5339 227.04L91.8719 227.884V228.391L92.2098 228.898L92.7168 229.236L94.5755 229.911L96.0964 230.418H96.4343L98.6311 229.236L95.7584 226.026L95.2515 225.689H94.9135L94.0686 226.026H93.7306L92.7168 225.351L92.3788 225.013L92.2098 223.662L93.5617 222.817H94.2376H94.7445H95.0824L95.5894 223.324L95.9273 224.337L97.6171 226.702L97.9551 227.04L98.2931 227.209L99.138 227.378L100.828 226.702L100.997 226.364L100.659 226.026L99.3069 225.858L98.969 225.689L98.6311 225.351L98.2931 224.675L97.9551 223.831L98.2931 223.324H98.6311L102.011 224.844L103.7 224L102.518 223.324L103.025 222.648L103.869 221.973H104.207L108.263 224.337L113.501 226.026L114.346 223.831V223.324V222.817V222.311L114.177 221.297L114.515 220.791L115.529 220.115L116.543 219.777H117.557H118.402L120.936 220.115H121.274L122.119 220.453L122.288 220.791L120.936 222.986L119.922 225.351L119.416 227.884L118.909 231.262L119.754 230.249L121.612 231.938L120.429 229.911L120.26 229.573L120.091 228.729L120.26 228.053L121.105 225.52L121.274 225.182L121.781 224.337L122.119 224L122.964 223.155H123.302L123.64 223.831L123.978 224.337L126.513 226.533L127.358 226.871L127.695 227.04L128.033 227.378L129.385 228.391L129.723 228.729L129.892 229.067L130.23 229.573L130.568 230.08L131.075 230.249H131.582L134.286 229.067L132.089 227.378L131.582 227.04L130.568 226.533L130.061 226.195L128.878 225.52L128.371 225.182L127.865 224.844L126.851 224.169L126.513 223.831L125.33 221.635L125.499 220.791V220.115L125.161 219.439L124.823 219.102L124.485 218.595L123.978 218.257L122.626 217.75H122.119L121.105 217.581L119.078 217.75H118.233L117.726 217.581L117.388 217.413L115.698 216.568L115.36 216.061L114.515 212.177L115.36 211.839L115.867 212.346L117.726 213.697L120.936 215.386L128.203 219.439L132.765 223.662L133.103 223.831L134.793 221.973V221.635L134.455 221.297L132.765 220.959L132.427 220.791L131.92 220.284L131.751 219.777V219.27L133.272 217.75L134.117 216.906L134.455 216.568H134.793H135.131L136.314 217.413L137.158 218.595L139.693 224L141.383 228.56L141.89 229.236L142.397 229.067L142.735 226.026L141.214 222.142L140.369 220.115L140.031 219.777L139.524 219.27L139.862 218.257L140.031 218.088H140.538L141.552 218.426L144.256 219.777L144.762 220.284L145.438 221.128L151.353 222.648L154.563 224.506L154.901 224.675L155.07 225.013L155.239 225.52V226.026L153.38 228.222L153.042 228.391L152.198 228.898L151.86 229.236L150.846 231.262L150.508 231.938L151.353 234.134L151.691 234.472L152.029 233.12L152.873 230.925L153.549 229.573L153.887 229.067L154.225 228.729L154.901 228.222L155.408 228.053L155.746 228.222L155.915 228.56L156.253 229.405L156.591 230.418L156.76 230.249L157.267 229.236L156.929 227.884L156.591 227.378V226.533L156.76 225.858L157.098 225.182L157.436 225.013H158.45H158.788L159.464 225.351L160.309 226.195H160.647L160.984 225.858V224.337L160.647 224L160.309 223.831L158.788 222.817L154.394 220.284L151.015 218.764L150.339 218.595L148.311 217.75L147.973 217.581L147.635 217.244L147.128 216.399L144.425 215.386L143.749 215.217H143.242H142.735H142.228L141.552 215.048L139.355 213.19L135.469 210.488L135.131 209.981L134.962 209.474L133.103 203.225L132.427 199.678L132.258 198.665V197.82V196.976L132.765 196.131L133.103 195.793L138.51 192.246H138.848L139.524 192.415H140.031H140.369H140.876L142.059 192.077L151.691 186.673L152.029 186.504L152.367 185.997L152.536 185.153V184.477L152.198 180.423L152.029 179.917L151.522 179.41L146.959 179.072H146.114L139.186 180.086H139.017L138.003 180.423L137.158 180.93L136.144 181.775L135.807 182.112L135.3 182.957L134.793 183.295L131.751 184.646H131.413H131.075L130.737 184.477L130.23 184.139L125.837 180.423L125.668 180.086L124.992 177.045L124.823 175.019V174.512L125.499 167.249L125.668 166.742L125.837 166.405L126.175 165.898L128.033 163.702L128.371 164.04L128.033 165.053V165.729L128.54 167.756L128.878 167.925L131.582 167.08L131.92 166.911L132.427 166.573L132.765 166.236L133.103 165.898L133.272 165.56L133.441 165.222L134.117 163.027V162.52V161.844L133.948 161.506L131.413 161L130.23 159.142V158.635L130.061 158.128L129.554 157.622L129.047 157.284L128.371 157.115H128.033H127.527L126.851 157.284H126.513L126.344 156.946L126.851 156.102L127.527 155.764L131.92 154.919H132.427L132.934 155.088L133.61 155.426L133.948 155.764L134.286 156.27L134.624 157.115L135.469 158.297L135.807 158.804L136.314 159.311L136.82 159.48H137.327H137.834L138.341 159.311L142.566 156.777L143.073 156.27L143.58 155.595L145.776 151.879L145.945 151.203V150.697L145.776 147.488L146.283 146.981L146.79 146.643L149.494 145.123L150.339 144.785L151.691 146.474L151.86 146.812L152.029 147.15L152.198 147.657V148.163L152.367 148.67L155.07 152.386L155.408 152.724L156.084 153.399L156.76 153.906L157.436 154.075H157.774L158.45 153.737L161.154 152.386L164.195 150.359L164.533 150.19L164.871 149.683L167.744 150.866L169.603 152.217V152.555V158.297V177.552V180.086V187.01V200.354V206.772V220.622V221.466V229.405L169.265 238.863ZM170.954 260.82H170.447L169.94 260.651L169.433 259.976L168.927 258.793L168.42 258.287H167.744L166.899 258.962L170.278 262.509L171.63 262.171L172.306 261.665L172.813 261.327L173.489 261.158L174.672 261.327L176.362 262.002L180.755 264.198L181.262 265.043L181.093 266.225L180.755 267.069L181.769 267.407L183.121 267.238L182.107 269.434L183.628 271.968L184.304 272.305L185.487 272.474L185.149 275.852L183.459 277.541L183.121 277.879H182.952L182.276 277.71L181.938 277.035L181.093 275.852L179.234 273.657L178.22 271.63L178.558 270.11L175.855 267.914L175.348 267.745L174.503 268.758L173.151 268.927L171.461 267.407L169.771 267.238H166.899L165.885 268.421L164.533 268.927H163.857L162.843 268.083L161.829 266.732L161.322 265.549L162.167 264.367L163.857 263.86L164.533 263.691L165.04 264.029L165.885 263.86L166.223 261.665L163.181 262.847L162.843 262.002L163.35 259.638L164.026 257.442L165.04 256.429L165.209 255.584L161.491 258.455L159.971 258.793L157.267 257.949L156.591 257.611L155.915 256.935L155.408 256.091L154.732 253.388L151.691 253.895L151.015 254.064L150.508 254.402L152.029 254.233L153.718 254.402L154.394 256.935L151.86 257.949L151.522 259.638L153.549 262.847V265.38L155.577 265.887L157.267 266.056L157.098 268.59L156.76 269.096L153.042 268.083L150.508 268.59L148.987 264.874L149.663 263.354L151.015 263.016L151.522 262.678L149.832 261.665H149.156L147.297 263.354L146.452 261.496L144.256 260.482L144.425 259.131L145.1 257.78L146.959 256.26L147.635 256.091L148.48 255.753L148.987 254.909H147.973L146.959 255.584L144.762 257.273L141.214 258.287H140.538L139.017 256.935L140.369 256.766L140.876 256.429L139.355 254.909L136.651 254.74L136.314 254.233L136.82 253.051L138.679 250.855L139.524 250.517L142.059 250.01L145.607 249.673L152.367 248.321L156.422 247.308L161.322 246.97L165.209 247.139L165.716 246.97L167.406 245.619L169.265 245.281L172.813 244.943L175.348 245.957L176.869 247.984L177.207 249.673L176.869 250.855L171.292 253.388L170.954 254.064L169.603 254.402L166.561 253.557L165.378 252.713L164.533 251.868L163.688 251.193L163.181 250.855L160.478 248.997H159.633L159.126 250.01L161.491 252.544L163.181 253.557L166.054 255.246L170.278 255.415H173.827L175.348 255.584L177.882 257.273L179.572 259.131L179.403 259.976L172.306 260.989L170.954 260.82ZM57.062 199.34L58.2449 198.496L58.4139 194.611L55.2033 194.78L54.1894 195.624L53.3445 195.962L52.6686 196.131H50.6408L51.6547 195.287L52.3306 194.949L52.8375 194.442L52.6686 192.753H51.9927L50.9788 192.922L50.3029 192.753L49.7959 192.246V190.557L50.1339 189.713L50.4718 189.375L51.4857 189.206L52.1616 189.713H52.6686L53.1755 189.375L53.8515 188.699H54.3584L56.2171 189.713L56.7241 190.388L57.062 191.233L57.738 192.246L58.4139 192.753L60.4416 193.429H61.1176H63.3143L65.511 193.091V192.077H64.8352L64.3281 192.584L62.6383 192.753L61.1176 192.584L60.2727 192.415L58.5829 191.909L57.738 191.402L54.6964 186.673L54.1894 185.153L55.2033 184.984L56.0482 185.321L57.4 185.997L61.7934 186.842L61.1176 184.815L60.1037 183.295L62.4694 182.45L64.3281 182.619L66.525 183.464L67.3699 187.855L67.0319 189.713L66.525 191.233L67.3699 193.429L68.7217 189.206L68.8906 187.855L68.2148 186.335L67.7077 184.815L69.3975 185.49L70.5804 187.01L72.1013 190.388L74.129 188.699L76.6637 189.037L77.8465 189.713L78.6914 191.402L78.5225 192.584H77.8465L77.1707 192.922L76.6637 193.766L77.6776 196.469L78.5225 195.287L79.3674 194.273L82.071 195.287L82.578 195.793L84.9437 198.834L84.0988 199.34L83.7608 199.509L83.2539 201.198L82.409 201.705H81.7331L79.8743 201.367L78.3535 202.718V205.59L78.8604 205.927L79.8743 206.434L80.7192 206.603L80.5502 208.461L78.0156 208.799L75.4809 210.994H74.8049L74.298 210.825L73.2841 209.643L71.2564 210.657L68.5526 212.514H67.3699L64.4972 210.994L63.8212 210.15L64.3281 209.474H67.0319L69.7355 207.616L70.9184 200.691L69.2286 199.678L68.5526 200.016L67.0319 201.367L66.187 201.705L64.1592 201.536L63.9903 200.691V199.678L63.1454 199.34L62.1314 203.563V204.576L61.4556 207.447L59.2588 206.434L58.4139 204.407L57.569 202.212L57.062 200.523V199.34ZM182.952 243.761H185.318L187.852 244.099L189.88 244.268L193.26 244.437L194.78 244.268H195.287H198.329L199.343 244.437L201.033 244.775L201.878 245.112L202.722 245.45L203.229 245.788L204.074 246.295L204.581 246.632L207.285 250.855V253.557L206.609 255.415L206.271 256.091L206.102 256.429L202.891 260.651L202.722 260.82L201.709 260.989H201.371L199.005 260.313L198.667 260.144L198.16 259.807L197.822 259.469L197.653 259.131V258.455L198.16 257.78L198.498 257.273V256.766L198.329 256.429L197.822 255.922L197.315 255.584L196.639 255.415L195.963 255.246H195.456L194.949 255.415L194.105 255.753L193.767 256.091L193.598 256.429L193.26 257.104L193.091 258.118V259.131L192.753 259.469H192.415L189.035 259.131L188.697 258.962L187.345 258.118L187.683 257.611H188.021V256.935L187.345 255.584L186.838 255.753L183.628 257.442L182.783 257.949H182.614H182.107L181.769 257.78L181.6 257.104L181.093 256.598L180.924 256.26L179.91 251.699L180.079 251.024L179.572 247.139L179.065 247.308L176.869 247.477L176.193 246.632L175.855 245.112L176.193 244.606L176.531 244.437L179.741 243.93L182.952 243.761ZM55.5413 176.876L57.2311 176.539L57.569 176.708L59.2588 177.89L61.9625 179.748L62.3005 180.254L61.9625 180.761L61.6245 180.93H61.2865L58.5829 180.761L52.6686 179.241L52.4996 178.059L52.3306 177.552L50.6408 176.708L49.9649 175.187L47.2612 172.485L46.9233 172.654L44.5576 170.289L43.0368 168.431L41.009 168.938L39.9951 169.445L38.8123 170.12L33.236 169.952L32.729 169.614L32.0531 167.249L30.3633 165.053H29.8564L28.3355 164.716L26.4768 163.195L26.3078 162.689L26.4768 162.013L26.9837 160.155L26.1388 159.142L25.9698 158.973L25.2939 158.804L24.111 158.297L23.7731 158.128L22.5902 156.439L23.6041 154.919H23.9421L25.1249 155.764L28.5045 159.142L29.8564 160.831L30.7013 163.027L31.7151 164.209L34.4188 164.884L34.7568 164.378L35.7707 164.04L37.4604 163.702L39.9951 164.716L43.0368 166.573L44.5576 167.925L45.5714 168.6L47.4302 169.445H48.951V168.6L50.1339 168.938L51.1478 170.289L51.3167 170.627L51.6547 172.316L51.4857 172.823L51.1478 173.33L50.9788 173.836L51.8237 176.201L51.9927 176.539L52.3306 176.708L53.1755 175.019L53.0065 174.343L52.8375 173.498L52.6686 172.147L53.0065 171.809H53.3445L53.8515 171.978L54.5273 172.316L57.2311 175.694L57.4 176.201L55.5413 176.876ZM105.728 206.941L106.235 209.474L108.263 209.812L110.46 208.799L112.149 209.981L112.318 210.488L112.825 213.528L112.994 217.244L110.122 221.804L109.784 222.142H109.277L108.939 221.804L108.094 220.622L106.742 220.284L104.545 219.27L102.18 215.048L102.011 214.372L102.18 213.697L102.518 213.359H103.362L103.7 213.19L103.869 212.852L103.025 211.332L100.997 213.021L100.152 215.724L99.9829 216.23V217.075L97.6171 216.568L97.2792 216.23L96.7722 214.879L96.4343 214.035L96.2653 213.19L96.4343 212.683L97.7862 210.994L97.1102 206.265L97.4482 205.421L97.9551 204.745L98.2931 204.407L99.3069 204.238H101.673L103.869 205.252L105.728 206.265L105.897 206.434L105.728 206.941ZM123.978 215.724H123.809L121.781 214.879L120.767 214.372L119.922 213.866L119.584 213.528L117.388 211.501L116.881 210.994L115.529 208.292L115.022 204.238V203.732V201.367L115.191 201.029L116.543 200.016L117.726 199.509H118.064L120.091 200.185L120.598 200.691L120.936 200.86H121.274L121.781 200.523L122.119 200.016V199.509L121.95 199.002L121.612 198.496L121.274 198.327L120.26 197.82L120.091 197.482L119.922 196.976L119.754 194.273L119.922 193.766L120.598 193.598L120.936 193.429L121.274 193.26L121.612 192.922L122.119 192.415L122.457 191.909L122.626 191.571L122.795 190.895L122.964 190.051L123.133 189.544L123.302 189.206L123.64 188.868L124.823 188.699L125.161 189.037L124.992 192.077L124.823 192.584L124.654 193.091V193.598V194.442V194.949V195.455L125.837 201.029L127.189 204.576L128.033 206.941V207.616L127.527 208.123L127.02 208.292H126.175H125.837L125.33 208.123L124.992 207.954L124.316 207.447L123.64 206.772L122.964 205.758L122.626 205.421L120.429 203.225L120.26 203.732V204.238L120.598 205.59L120.767 205.927L120.936 206.265L121.443 206.941L121.781 207.279L121.95 207.616L122.457 208.461L123.471 211.839L123.64 212.514L123.978 215.555V215.724ZM96.4343 204.069L95.2515 205.252L95.5894 205.758L96.0964 206.265L96.9413 209.643V210.319L95.5894 212.346L95.0824 212.852H94.7445H94.4066L93.5617 212.514L93.2237 212.346L92.8857 212.008L92.5478 211.501L90.52 208.292V207.616L90.689 206.772L90.52 206.434H90.1821L89.8441 206.941V207.447L90.0131 207.954L90.858 210.825L91.7029 212.008L92.0408 212.177L92.5478 212.514L94.9135 215.555V216.23L94.7445 216.737L92.8857 219.777L92.5478 219.946H92.2098L90.1821 219.439L89.6751 218.595L90.0131 216.399L86.2955 212.514L84.0988 210.15L83.7608 209.812L83.5919 209.305L83.4229 208.968L82.747 204.576L82.578 203.732L82.747 203.056L83.7608 202.887H84.0988H84.4368L85.9576 203.563L86.2955 203.901L86.6335 204.745H87.6474L88.8302 201.705L89.1682 200.523L89.8441 200.185L90.351 200.016L95.5894 202.043L97.2792 202.887L97.1102 203.563L96.4343 204.069ZM14.9861 61.686L14.4792 62.5305L11.6065 66.4152L11.2686 66.7531L10.7616 66.922L9.07184 66.7531L8.90285 66.5842L8.73392 66.2464V65.7397L9.07184 65.0641L9.91674 64.5574L10.5926 63.7129L11.6065 62.1927L11.2686 61.855L9.57881 62.3617L8.39594 63.2062L5.86124 64.2196H5.52326L5.35432 63.8817V63.2062L5.69225 60.6727L6.36816 58.6458L7.04412 56.788L7.21306 56.2812L7.55104 55.9435L7.88902 55.7745H8.39594L8.73392 55.9435L10.4237 56.619L10.5926 56.9568L10.4237 57.2947L10.2547 57.4635L9.57881 57.6325H8.56493L8.39594 57.9702L8.73392 58.6458L9.07184 58.9837L10.0857 59.4903L11.9445 59.997L13.2963 59.8282V57.9702L12.9584 56.788L11.2686 56.2812L9.40982 55.099L7.55104 53.41L7.21306 52.0587L9.24083 50.5386H9.57881L13.2963 51.552L13.6343 51.721L16.8449 55.6057L15.662 56.788L15.3241 57.1257L15.1551 57.4635H16.169L20.0555 56.4502L20.3935 55.4367L20.2245 54.93L21.2384 54.4233L21.5763 54.7611L21.7453 55.6057V56.9568L21.4074 58.1392L16.8449 60.8415L16.5069 61.0105L14.9861 61.686ZM23.0972 92.426L19.2106 90.5681L17.3518 87.359L17.1829 87.0212V86.3456L17.3518 85.8388L18.0278 84.1498L18.3657 83.981L19.7176 84.1498L22.5902 84.8255L23.9421 85.3322L25.8008 84.3188L25.9698 81.2786V80.6029L25.8008 80.0963L25.1249 79.4206L24.787 79.2518L24.449 78.9139L24.28 78.5761L24.449 78.2383L24.9559 77.9006L25.8008 78.0694L27.4906 78.9139L29.0115 79.9273L30.8702 81.9541L31.0392 82.4608L31.2082 83.1365L31.8841 89.3858L31.3772 91.5815L31.2082 91.9193L30.8702 91.7504L30.7013 90.9059L30.3633 89.5547L29.6874 88.5413L29.3494 88.3723H29.0115L26.3078 90.0614L25.8008 91.5815L25.6319 91.9193L23.0972 92.426ZM128.203 243.423H128.878L129.047 243.761L125.837 245.281L124.823 245.45L124.316 245.788V246.464V247.139L124.147 247.477L121.443 247.815H120.598L119.922 247.646L119.416 247.308L119.078 247.477L118.74 248.153L120.598 248.997L124.485 249.504L127.527 248.997H127.865H129.047L129.216 249.166L129.385 250.01L129.723 252.544L129.047 253.22H128.371L128.033 253.051L127.695 252.713L127.527 252.037L126.851 251.362L126.344 251.193L126.006 251.024L125.161 251.699V252.713L125.33 253.051L126.006 253.388H126.513L126.851 253.557L127.02 253.895L126.682 254.402L123.133 256.091H122.626L122.457 255.753L122.288 255.246V254.402V253.726L122.626 252.882L121.274 251.193L119.078 253.051L118.571 252.882L113.332 250.855L111.642 249.504L111.473 246.295L111.811 245.957L112.149 245.788L114.853 245.281L116.881 245.788L117.895 246.126L119.078 246.632L122.119 246.801L122.457 246.632L121.105 246.126L121.274 245.788L123.64 244.437L123.978 244.268H125.499L128.203 243.423ZM35.4327 82.6298L34.7568 80.9408L34.4188 80.6029L33.9119 80.2651L32.898 80.7718L32.729 81.1096L30.7013 80.2651L28.3355 78.4073L28.1666 78.0694L26.9837 75.5359L26.8147 75.0292L26.6457 74.3536L26.8147 73.8469L28.6735 72.1579L30.3633 70.4689L28.5045 69.6244H28.3355L27.4906 69.9622H27.1527L24.618 68.611L26.1388 67.2597L26.4768 67.0909L27.3217 66.5842L27.8286 66.4152H28.1666L32.2221 69.1177L34.4188 74.0158L35.2637 76.2116L36.6155 79.5896L36.7845 80.4341V81.2786L36.4466 82.4608L36.2776 82.6298H35.4327ZM138.848 249.504L139.017 248.321V247.815L138.679 246.97L138.003 246.801L137.834 246.126L138.341 243.592L138.51 243.423L139.862 242.917H140.031L142.735 242.41H144.087L150.846 243.93L151.522 244.099L155.577 245.45L156.422 246.295L156.084 246.632H155.239L150.677 247.815L148.311 248.49L144.762 249.166L142.059 249.673L138.848 249.504ZM42.3608 155.257H42.1919L41.8539 155.088L38.6433 151.372L38.4743 150.866V150.528L38.9813 149.008L39.1502 148.67L40.5021 146.981L44.3886 143.265L45.9094 142.252H46.2474L46.5853 142.421L46.9233 142.758L47.0923 143.265L48.1061 145.461L46.7543 150.359L45.4025 153.23L45.2335 153.568L44.8955 154.075L44.5576 154.244L44.2196 154.075H44.0506L43.2057 154.581L42.3608 155.257ZM16.6759 106.445H16.5069L16 106.107L16.169 105.094L17.8588 103.742L19.0416 103.236L19.5486 102.898L21.2384 100.871L21.4074 100.364H21.2384L18.7037 101.884L18.1967 102.222L17.6898 102.053L17.3518 101.547L17.1829 101.04V100.533L17.3518 100.195L21.2384 96.1418L23.0972 95.6352L25.6319 95.4662L26.6457 96.8174L26.8147 97.1552L27.4906 98.8442L27.3217 102.053L26.9837 102.56L25.9698 103.742L25.8008 103.911H25.2939L24.9559 103.742L24.111 100.871L23.0972 101.378L22.5902 102.56L21.5763 104.756L21.2384 104.925L20.2245 105.094H19.3796L18.0278 105.262L17.6898 105.431L16.6759 106.445ZM8.56493 80.2651L6.19922 79.5896L5.69225 79.4206L5.52326 79.0828L4.17145 75.1981L4.34044 74.6914L5.35432 73.5091L6.19922 73.0024H6.53715H6.87513L7.55104 73.3402L7.72003 72.3268L7.04412 70.4689L6.36816 69.9622L5.52326 69.4555V68.9488L6.70614 67.9354H7.21306L12.1135 68.9488L14.1412 69.1177L14.3102 69.4555L14.1412 69.9622L11.7755 73.1713L11.4375 73.3402H11.0996L10.5926 73.1713L10.2547 73.0024L9.91674 72.6646V73.6781L10.0857 76.2116L10.2547 79.0828L9.91674 80.2651L9.57881 80.6029L9.24083 80.7718L8.56493 80.2651ZM12.1135 46.9916L11.7755 46.3161L10.4237 44.6271L9.91674 44.4581L10.0857 45.6405L10.2547 46.3161V46.6539L9.91674 46.8228L9.40982 46.6539L8.56493 45.8094L8.05796 45.3026L7.38205 44.1204V43.6136L7.55104 43.107L6.19922 42.0936L3.49554 44.6271L2.98857 44.4581L2.31266 42.9381L2.14367 42.6003L1.80574 38.0399L2.81963 36.6887L7.04412 36.3509H7.38205L7.72003 36.5199L8.05796 36.8576L8.90285 38.2089L11.6065 43.6136L11.7755 43.9515L12.2824 46.6539L12.1135 46.9916ZM17.1829 131.273L16.8449 130.429L15.1551 125.531L17.1829 119.957L17.5208 119.45L18.1967 120.295V120.632L17.8588 121.139V121.477L18.5347 121.646L19.3796 121.477L19.8865 121.308L20.3935 120.632L19.7176 115.903L19.0416 114.045L18.3657 113.707L18.0278 113.37V113.032L18.3657 112.694L18.8727 112.356L19.2106 112.187L19.7176 112.018L21.2384 112.525L21.5763 113.032L21.7453 113.37L22.0833 116.748L22.2523 118.099L21.9143 119.788L20.7314 124.517L19.3796 128.402L18.1967 130.598L17.8588 131.104L17.5208 131.273H17.1829ZM10.2547 16.5895L8.90285 12.367L8.73392 11.8603L6.36816 13.0426L5.52326 14.5628L5.35432 14.9005L5.01634 15.2383H4.50943L1.12983 12.5359L0.960844 12.1981L0.791854 11.8603V11.1848V10.678V10.1713V9.66461L1.12983 8.48229L1.46776 8.14446L3.32655 7.46892L7.55104 7.80674L7.88902 7.9756L8.73392 8.31343L9.07184 8.48229L9.57881 9.15793L11.4375 14.3938V14.9005L10.5926 15.914L10.2547 16.0828V16.5895ZM8.90285 112.525L8.73392 112.018V108.978L9.74775 107.965L10.7616 106.276L10.9306 104.418V101.716V101.04V100.533L11.0996 100.027L11.2686 99.6887L12.4514 98.6754L12.7894 98.3375H13.1273L16.169 101.04L16.338 102.222V103.405L16.169 103.911L15.831 104.249H15.4931L15.1551 103.911H14.6482L14.4792 104.08L12.9584 107.458L13.1273 108.134V108.809V109.485L12.9584 109.992L12.6204 110.667L9.40982 112.694L9.07184 112.863L8.90285 112.525ZM36.9535 142.083L35.9396 141.238L35.0947 139.549L34.9258 136.509L35.0947 136.171L35.4327 135.834L35.7707 135.665H36.2776L36.7845 136.002L37.1225 136.34L37.7984 136.678L38.1364 136.509L37.1225 134.482L36.9535 134.145L36.2776 133.638L34.2498 132.962L32.898 133.131L32.56 133.3H32.0531L31.5462 133.131L30.8702 132.624V132.118L32.56 130.598L32.898 130.429L33.4049 130.26H33.5739L33.9119 130.429L34.2498 130.598L36.1086 132.287L37.6294 133.976L38.6433 135.158L42.3608 139.718V140.225L41.347 141.069L37.9674 142.252H37.1225L36.9535 142.083ZM4.00246 23.6834H3.83347L1.12983 22.1633L0.791854 21.8255L0.622864 21.4877L1.97473 18.9542L3.32655 18.1097H3.66453L4.17145 18.2785L5.35432 17.0963L6.03023 15.2383L7.21306 13.7183L7.55104 13.3805L7.88902 13.2115L8.22695 13.3805L8.56493 14.225L9.40982 16.7585L9.57881 17.2651L9.07184 18.2785L8.73392 18.9542L8.56493 19.292L5.18533 23.0078L4.00246 23.6834ZM23.6041 83.981L21.7453 83.8121L20.7314 83.4743L18.1967 82.6298L17.8588 82.1231L17.1829 79.4206L17.3518 78.0694L17.5208 77.7316L19.0416 75.8737L20.7314 75.3671L21.0694 75.5359L22.5902 76.8871L24.618 81.2786V81.7853L24.449 83.1365L24.111 83.981H23.6041ZM36.4466 124.855L34.7568 124.517L31.3772 122.49L30.0253 120.801L28.1666 115.565L31.2082 116.579L36.1086 120.463L38.1364 121.815V122.153L37.1225 124.348L36.9535 124.686L36.4466 124.855ZM111.136 245.788H110.798L109.108 244.943L107.756 243.761L104.883 245.619L104.545 245.788L102.856 245.281L101.673 242.748L103.025 240.383L104.207 240.552L107.925 241.397L109.446 241.903L110.122 242.41L110.967 242.748L111.473 242.579L111.98 242.241L112.318 241.734H112.656L113.839 242.579L114.515 244.606L114.008 244.775H113.163L111.136 245.788ZM47.0923 135.496L46.9233 135.158L46.2474 133.976L45.2335 132.287L43.5437 130.598L43.0368 130.26L41.5159 129.246L38.4743 127.388L38.1364 127.22L37.7984 126.882V125.531L38.3053 124.01L39.1502 123.335H39.4882L39.9951 123.673L44.0506 127.388L45.2335 128.571L46.0784 129.415L46.2474 129.922L47.4302 132.793L47.9372 134.989V135.665L47.7682 136.34H47.4302L47.0923 135.496ZM39.8262 118.943L39.3192 118.774L38.9813 118.606L35.6017 116.072L35.0947 115.565L34.7568 115.059V114.383L34.9258 114.045L36.1086 113.876H37.1225L38.3053 111.681L37.9674 109.316L38.1364 108.978L38.3053 108.809H38.6433L38.9813 109.147L42.1919 117.254V117.93L41.8539 118.268L41.5159 118.437L40.84 118.774L40.3331 118.943H40.1641H39.8262ZM200.526 281.088V279.737L200.357 279.568L199.005 279.23L197.653 279.568L195.456 278.724L195.287 277.71L195.625 275.683L198.329 272.643L199.681 271.968H200.019L202.047 278.217L202.384 279.906L202.216 280.413L201.878 280.75L201.371 280.919L200.526 281.088ZM19.5486 132.287L18.8727 131.273L21.4074 122.828L21.5763 122.321L22.0833 121.139L22.4212 120.632L22.7592 120.295H23.0972L26.3078 120.801L26.1388 121.308L22.2523 130.091L22.0833 130.429L19.5486 132.287ZM81.3951 209.643L82.747 210.825L83.4229 212.346L82.409 214.541L81.2261 216.737L80.7192 216.906L78.1845 217.075L77.3396 216.906L76.8327 216.568L76.4947 216.23L76.3258 214.541L79.3674 209.981L79.8743 209.474L80.7192 209.136H81.3951L81.5641 209.305L81.3951 209.643ZM44.2196 142.083L43.2057 140.732L42.3608 138.536L40.3331 136.847L38.4743 134.482L38.3053 134.145L38.1364 133.3L38.4743 132.793L39.3192 132.287H39.6572L40.84 133.131L41.8539 134.82L45.2335 136.678L45.7404 137.185L46.0784 137.691L46.2474 138.029L46.9233 140.732L46.7543 141.407L46.4163 141.745L45.4025 142.252H44.7265L44.2196 142.083ZM54.1894 181.943L54.6964 182.112L55.0343 182.619L53.3445 184.984L54.8653 187.179L55.0343 187.855L52.8375 189.206L52.3306 189.037L49.12 187.179L46.0784 184.984L45.7404 184.477L45.4025 183.632V183.295H45.7404L46.5853 184.308L47.4302 184.984L47.9372 185.321L48.2751 185.49H48.4441H49.458L51.4857 184.646V184.308L51.3167 184.139L50.6408 183.801L50.9788 182.281H53.6824H54.0204L54.1894 181.943ZM11.4375 13.3805L10.9306 12.367L8.90285 6.2866H9.74775L10.9306 6.62442L11.2686 6.79328L11.9445 7.1311L12.7894 7.63778L13.6343 8.31343L13.9722 8.65125L14.1412 8.98897L14.4792 9.66461L14.6482 10.0024L15.1551 11.8603V12.1981L14.9861 12.5359L12.4514 13.5493H12.1135L11.4375 13.3805ZM30.1943 96.1418L26.9837 94.6217L26.6457 94.2839L25.9698 92.2571L26.1388 91.2437L28.6735 89.3858H29.0115L29.3494 89.5547L29.6874 90.0614L31.2082 93.1016L31.3772 93.4394V93.9462V94.9595L30.8702 96.3107H30.5323L30.1943 96.1418ZM33.5739 96.4797L32.56 91.4126L32.2221 89.2168L32.0531 85.67L32.2221 85.3322H32.898L33.4049 86.3456L34.9258 91.0748L35.7707 94.4528L35.9396 95.804L34.5878 97.493L34.2498 97.6619H33.9119L33.7429 97.3242L33.5739 96.4797ZM129.723 217.581H129.385H128.878L125.668 216.23L125.161 215.892L124.147 214.541L123.978 214.203V213.697L124.147 213.021L124.316 212.514H124.654L125.161 212.683L129.385 214.372L130.737 215.217L131.075 215.892V216.568L130.737 217.075L130.061 217.75L129.723 217.919V217.581ZM57.9069 211.839L56.3862 210.994L53.3445 209.643L53.0065 209.305L54.8653 207.616H55.7102H56.5551L58.2449 207.785L58.5829 207.954L59.9347 208.63L60.1037 208.968L60.4416 210.994L60.1037 211.332L59.7658 211.501L57.9069 211.839ZM211.847 257.442L212.354 257.949L212.861 259.976L212.523 260.989L211.678 261.665L211.171 261.833L208.637 261.665L207.454 261.496L207.285 261.327L206.947 259.3L207.623 258.118L208.13 257.78L209.989 257.104H210.665L211.171 257.273L211.509 257.442H211.847ZM61.7934 128.74L61.6245 127.895L61.7934 127.22L61.9625 126.713L62.1314 126.375L63.1454 124.179L63.3143 124.01L65.173 122.997L67.0319 122.321L66.8628 123.504L64.4972 128.402L63.8212 128.74L62.4694 129.246H61.9625L61.6245 129.077L61.7934 128.74ZM38.4743 102.56L38.1364 102.391L37.7984 102.053L37.4604 99.5199V99.182L37.7984 97.3242L37.9674 96.9863L38.3053 96.8174H38.8123L40.5021 97.1552L41.178 97.493L41.347 97.9997L41.6849 100.027V100.871L39.3192 102.898L38.4743 102.56ZM13.2963 7.63778H13.1273L10.5926 5.94877V5.44209L12.1135 3.58422L14.6482 0.712891H14.9861L15.1551 1.21957V1.55739L15.3241 2.23294V2.73972V3.2464L14.6482 5.94877L13.9722 7.63778L13.8033 7.9756L13.2963 7.63778ZM22.2523 69.2866L21.7453 69.1177L21.5763 68.7799L22.2523 65.233L23.6041 64.2196L23.9421 64.0507H24.449L25.9698 64.2196L27.4906 64.7262V65.0641L27.1527 65.5707L25.1249 67.2597L23.0972 68.9488L22.7592 69.1177L22.2523 69.2866ZM30.0253 36.1821L29.8564 34.8309L29.5184 31.4529L29.6874 29.9327L29.8564 29.426L30.1943 29.2571L31.7151 30.6084L32.3911 31.115L32.56 31.4529L33.5739 33.8174L33.4049 34.1552L30.3633 36.6887L30.0253 36.1821ZM13.8033 122.828L13.6343 122.659L13.4653 122.321L14.1412 118.606L14.6482 117.085L14.8171 116.748L15.1551 116.241L15.662 115.903L16.169 115.734L16.8449 115.903L17.3518 116.41V117.085L17.1829 118.606L16.8449 120.126L16.5069 121.308L16.338 121.815L16 122.153L14.9861 122.997L14.4792 123.166L13.8033 122.828ZM37.1225 105.431L35.6017 104.587L34.5878 103.911L34.2498 103.573L33.9119 101.547V100.364L34.0809 99.6887L35.9396 99.0132L36.2776 99.182L37.6294 102.56L37.7984 102.898V104.925L37.6294 105.262H37.2915L37.1225 105.431ZM218.776 259.638L217.593 259.3L217.424 258.962L217.255 258.287V257.949L217.593 256.26L219.62 254.74H220.127H220.465L222.155 255.584L222.493 256.26L220.296 259.131L218.944 259.807H218.776V259.638ZM125.33 240.89L125.837 241.059L126.344 241.228L126.851 242.072L126.513 242.579L126.175 242.748L121.781 243.592H119.922L118.74 242.917L118.402 242.41L118.74 242.072L119.584 241.565L122.119 240.89L123.978 240.721L125.33 240.89ZM14.8171 80.6029L14.4792 80.2651L14.3102 79.9273L13.8033 78.2383V77.5628L14.6482 75.1981L14.9861 75.0292H16.8449L17.0139 75.3671V75.8737L16.8449 80.9408L16.5069 81.1096H15.662L14.8171 80.6029ZM77.3396 224L77.0016 223.831L75.8188 222.142L75.4809 220.453L78.1845 218.933H78.6914L81.2261 219.946L81.3951 220.453L81.2261 221.297L79.5363 222.142H79.1984L77.3396 224ZM22.9282 129.246L23.0972 128.402L23.2661 128.064L23.6041 127.726L27.3217 124.01L28.1666 124.517L28.6735 125.193V126.375L28.3355 127.22L26.9837 128.233L24.111 129.922L23.0972 130.429L22.9282 130.26V129.246ZM128.033 212.683H127.695L125.499 211.163L124.823 210.488L124.485 209.981L124.316 209.474L124.485 209.136L124.654 208.968L128.709 208.123L128.878 208.461L129.216 209.305L129.385 210.15L128.878 211.839L128.54 212.683L128.203 213.021L128.033 212.683ZM44.2196 189.713L43.8817 189.544L43.3747 187.517L43.7127 184.308L43.8817 183.97H44.2196L47.2612 186.166L47.7682 186.673V187.179L47.5992 187.517L45.2335 189.206L44.8955 189.375L44.5576 189.544L44.2196 189.713ZM54.5273 164.209H53.8515H53.5135L52.6686 163.364L52.4996 163.027L52.6686 162.52H53.0065L53.1755 162.351L52.3306 161.844L51.3167 161.506L49.458 161.338H48.951L46.7543 161.844L46.2474 162.182L46.0784 161.844L47.4302 160.662L50.4718 159.986L54.0204 161L54.3584 161.169L55.3722 162.351L55.0343 164.04L54.5273 164.209ZM45.2335 119.619H45.0645L44.5576 119.45L44.0506 119.112L43.8817 118.774L41.8539 114.552V113.707L42.0229 113.37H42.5298L44.0506 114.214L45.2335 115.903L45.9094 117.592V118.099L45.2335 119.619ZM193.936 285.817L193.091 283.791L192.753 283.622H191.401L188.528 284.466L188.19 284.297L188.021 283.96V283.284L188.359 282.439L189.204 282.271H189.542L190.218 282.439L190.725 282.608L191.739 282.777H194.273L195.118 282.102L195.456 281.933L196.47 282.271L196.808 282.777L196.132 284.804L195.794 285.142L194.611 284.804H194.273L193.936 285.817ZM208.299 247.477L209.482 247.815L212.016 248.828L212.354 249.166L213.368 252.375L213.03 252.544L212.523 252.375L207.116 248.659L206.778 248.153L206.947 247.646L207.116 247.477H207.623H208.299ZM22.4212 139.043L20.9004 137.523L20.7314 135.496L24.9559 134.482L25.4629 134.651L25.6319 134.989L23.9421 138.198L23.2661 138.705L22.7592 138.874L22.4212 139.043ZM45.5714 102.391L43.8817 102.053L43.7127 101.884L43.0368 101.378L42.5298 99.8577L42.6988 99.5199L43.2057 98.8442L44.2196 97.9997L44.5576 97.8309L44.8955 97.9997L45.2335 98.3375L45.5714 98.6754L45.7404 99.0132L45.9094 99.3509L46.0784 100.027V100.871L45.7404 102.391H45.5714ZM16.169 4.25977H15.662L15.3241 3.92194V3.41526L16.169 1.21957L16.5069 0.712891H18.5347L19.7176 0.88175L20.3935 1.21957L18.1967 3.2464L17.8588 3.58422L17.5208 3.75308L16.8449 3.92194L16.169 4.25977ZM21.9143 133.976L21.5763 133.807L21.4074 133.469L21.2384 133.131V132.287L21.5763 131.442L25.8008 128.909L26.1388 129.753L24.111 133.131L22.5902 133.807L22.2523 133.976H21.9143ZM191.063 273.994L190.894 273.657L191.739 269.265L192.077 268.758L192.584 268.421H192.922L193.26 268.927L193.598 269.265L193.936 269.772L194.105 270.11L194.442 270.785V272.305L193.26 273.319L192.753 273.657L192.077 273.826L191.063 273.994ZM132.596 247.984H132.258L131.92 247.815L131.582 247.477V246.97L131.92 246.632L132.258 246.295L135.638 244.437L135.976 244.268H136.314L136.482 244.437L136.82 244.943V245.619L135.976 246.97L133.779 247.815L132.596 247.984ZM38.9813 176.201L38.8123 176.708L37.7984 178.565L37.1225 179.072L35.6017 179.579H35.2637L35.0947 179.41L34.7568 178.903V178.397L36.1086 177.045L37.1225 176.201L38.1364 175.356H38.4743L38.8123 175.525L39.3192 176.032L38.9813 176.201ZM202.722 285.48L200.188 284.128L198.667 282.946L198.836 282.439L199.174 282.271L199.681 282.102L201.033 282.271L202.722 282.777L203.567 283.96V285.48H202.722ZM43.7127 122.828L41.8539 122.49L41.5159 122.153L41.347 120.295L42.0229 118.774L42.3608 118.606H42.6988L43.0368 118.943L43.2057 119.281L43.7127 119.788L44.7265 121.477L44.5576 121.984L44.0506 122.49L43.7127 122.828Z" stroke="#FCF8E3" stroke-miterlimit="10"/>
</svg>
