<svg width="49" height="39" viewBox="0 0 49 39" fill="none" xmlns="http://www.w3.org/2000/svg">
<path d="M2.73547 0.919434L2.39749 1.25726L1.89057 5.64869L1.38366 11.7291L0.538757 14.0937V14.4315L0.876737 15.6138H2.05961L2.22855 16.7962L1.72164 17.4717L2.05961 18.4852L2.56653 20.1742L3.24239 19.8363L3.74941 20.343L4.25633 21.5254L5.60815 21.6943L6.95996 23.0454L7.29794 24.2278L7.129 24.9034L7.46688 26.4235L8.31178 26.9302L7.80486 27.7747L8.14284 28.4503L5.94613 28.2814L5.60815 29.2948L9.15668 29.6326L9.49466 28.7881H10.1706L10.5086 29.6326H11.8604L12.3673 29.1259L13.7191 31.1527L14.7331 31.8283H15.7469L16.4229 32.335L16.9298 32.5039L17.0987 33.1795L16.0849 34.1929L15.24 34.5307L15.071 35.5441V36.5575V37.5709L15.9159 37.2331L17.6057 37.5709L18.6196 36.8953L19.8025 37.2331H20.3094L20.6474 36.7264H20.9852L21.9992 37.402H22.675H23.689L24.7028 37.0642L25.2097 36.5575L25.5477 35.5441L26.2237 35.2063H27.0686L28.0824 35.5441L28.7584 35.713L29.4342 36.2197L30.1102 35.713H30.9551L31.8 35.5441L32.3069 35.713V34.6996L32.6449 34.024V33.3484V32.8417V32.1661L33.3208 31.9972L33.9967 32.5039L34.8416 33.1795L35.0106 33.8551L35.8555 34.3618H36.3625L36.7004 33.8551L37.3763 34.024L38.0522 34.1929L38.7281 34.8685L39.742 35.2063L40.7559 35.0374L41.4318 34.8685L42.4457 35.5441L43.1216 35.3752V35.2063L42.2767 30.9838L41.4318 27.0991L42.6147 24.0589L44.6424 18.3162L45.1494 16.4583L45.6563 16.2894H45.4873L44.8114 15.4449L44.4735 14.4315L44.3045 13.587L43.4596 13.2492L42.9526 13.4181L42.4457 13.7559L40.5869 16.1205L40.4179 16.965V17.6407L39.742 18.4852L38.7281 18.3162L36.3625 16.965L35.8555 16.4583L33.3208 14.2626L31.2931 13.587L29.7722 12.9114L28.9273 12.4047L28.4204 11.898L28.0824 11.2224L27.4066 9.87121L25.8857 9.53338L25.3788 9.7023L24.7028 10.0401H24.1959L22.8441 9.7023L22.5061 9.36447L22.3372 8.85779L21.9992 8.1822L20.1403 6.15537L19.9714 6.99987V7.67547L18.2816 9.7023H15.24L14.564 9.53338L10.0016 7.16878L6.45304 4.12859L6.2841 3.11517L5.94613 2.77735L2.73547 0.919434Z" stroke="#FCF8E3" stroke-miterlimit="10"/>
</svg>
