<svg width="48" height="41" viewBox="0 0 48 41" fill="none" xmlns="http://www.w3.org/2000/svg">
<path d="M40.4686 40.9383V40.2627L40.2996 39.756L39.6237 39.2493L38.4408 38.7426L37.5959 37.8981L37.427 37.2225V35.3646L37.089 34.1823L36.751 33.8445H36.0751L35.3992 34.3512L34.8923 34.5201L33.2025 34.0134L33.3714 32.4933L32.3576 29.2842L31.8506 28.7775L31.0057 28.4397H30.1608L27.2882 29.4531L26.2743 30.1287L24.5845 30.2976L23.9086 30.1287L21.8808 31.311L18.6702 35.0268L18.5013 35.7024V36.8847L16.4735 37.3914H14.1077L12.0801 34.5201L9.03834 33.1689L7.51759 30.2976L3.63108 30.4665L1.26532 29.4531L2.61714 28.6086L3.46203 25.9061H3.96895H5.32087L6.50365 26.244H7.34854L8.53142 24.8927L9.54536 21.008L8.70046 18.8123L8.36248 16.7855V16.2788L9.03834 15.941L10.7281 14.252L11.4041 13.2386L11.573 12.563V10.5362L11.911 9.86057L13.4319 9.69168H14.9526L16.6424 8.50938V4.96245L16.3045 3.61124L16.4735 2.59785L16.9804 2.42894L19.6841 1.41553H23.0637L25.2604 1.92223L26.4433 2.42894L27.4572 3.44236L27.7951 4.62466L28.64 5.80696H29.147L30.6678 4.45575H31.1747L32.8645 6.31367L35.3992 7.32706L37.427 5.63805L38.6098 4.96245L38.9477 5.63805L39.2857 7.49597L39.1168 8.34047L39.2857 9.01606L41.4824 12.3941L41.9894 12.2252L42.4964 11.3807L43.1722 10.7051L43.6792 10.5362L44.3551 10.7051L46.0449 11.7185L46.7209 14.7587L46.5518 15.4343L45.876 16.1099L44.3551 19.4879L43.5102 25.9061V27.2574L44.0171 29.1152L44.862 35.0268L45.538 39.0804L43.8482 40.4316H42.6653L42.1584 40.2627H41.4824L40.4686 40.4316V40.9383Z" stroke="#FCF8E3" stroke-miterlimit="10"/>
</svg>
