<svg width="46" height="68" viewBox="0 0 46 68" fill="none" xmlns="http://www.w3.org/2000/svg">
<path d="M0.723267 9.75856L4.60978 9.58966L8.32735 7.22505L12.0449 4.35373H18.6352L22.3526 7.22505L26.0702 6.71835L26.5771 3.84703L28.9429 1.48242H32.6605L32.3225 2.15802L33.8433 5.02934L36.7159 7.05615L37.7298 7.90065L39.7576 10.0964L40.0955 10.4342L40.9404 10.772L41.6163 10.9409L42.2923 11.2787L43.6441 12.6299L44.827 14.3189L42.2923 17.0213L41.7853 17.6969L41.1094 18.7103L39.0817 21.0749V22.0883L40.6025 23.2706L41.9543 24.4529L42.9682 26.4797L41.6163 30.0267H40.7715L39.7576 30.1956L36.7159 31.0401L36.547 31.7157L37.0539 32.2224L38.2368 34.7559L38.5747 37.2894L37.7298 37.6272L37.2229 38.1339V39.4851L37.5608 40.1607L37.8988 40.6674L38.7437 41.5119L39.4196 42.0186L40.2645 42.3564L40.9404 42.6942L41.6163 42.8631L42.1233 43.032L43.4751 44.0454L44.151 44.721L43.9821 45.2277L43.1372 45.7344L42.6302 46.0722L41.7853 47.2545V50.8015L41.9543 51.3082L40.0955 51.1393L35.7021 50.6326L34.0123 51.1393L33.5053 51.3082L32.9984 51.646L32.6605 52.3216L32.9984 52.8283L33.6743 53.1661L35.5331 53.8417H36.209H36.8849L38.2368 53.5039L38.9127 53.6728L39.2506 54.3484L39.0817 55.5307L38.9127 56.2063L37.8988 58.0642L37.5608 58.7398L37.2229 59.4154L37.0539 60.091V60.9355L34.8572 61.9489L31.8156 62.2867L25.3943 64.3135L17.6212 66.1714L15.7625 66.5092L14.0727 65.8336L12.5518 65.4958L9.84821 65.158H9.17225L6.63755 65.3269L6.29957 65.4958L5.45467 63.9757L5.28574 63.1312L5.79265 62.2867L4.44084 57.2197L3.93392 55.8685L3.427 54.6862L3.76488 53.335L4.2719 52.4905L4.10286 51.1393L3.76488 50.4637L3.427 50.1259L2.5821 49.2814L3.59594 38.8095L4.2719 36.4449L4.44084 35.7693L3.76488 34.2492L4.10286 32.3913L4.44084 31.7157L4.60978 31.0401V29.0133V28.3376L4.2719 26.6486L3.427 19.8926L2.75104 16.0079L1.90614 12.9677L0.892308 11.1098L0.723267 9.75856Z" stroke="#FCF8E3" stroke-miterlimit="10"/>
</svg>
