<svg width="48" height="57" viewBox="0 0 48 57" fill="none" xmlns="http://www.w3.org/2000/svg">
<path d="M12.0245 4.80943H13.0383L18.1077 3.62713L18.6147 3.28934L19.7975 1.93813L20.4735 0.755825L27.7396 0.586914L29.4294 1.60033L29.5984 2.61372V3.28934L30.7812 4.13384L31.964 4.30273H32.64H33.1469L33.8229 4.47164L34.4987 4.97835L34.8367 6.32956L35.0057 7.00515L35.6816 7.34295L37.8783 7.00515L38.0474 7.51186L39.7372 8.18745L40.075 9.03195L41.9339 12.7478L42.1028 13.5923L41.9339 14.6057L42.9477 15.6191L44.4686 17.1392L46.6653 20.0105L46.8342 22.3751L45.8204 24.0641L45.1444 26.0909L43.9617 27.78L43.2857 29.1312L42.1028 29.8068L40.075 31.4958L37.5404 30.4824L35.8506 28.6245H35.3436L33.8229 29.9757H33.3159L32.471 28.7933L32.1331 27.611L31.1191 26.5977L29.7673 26.4287L27.5706 25.922H24.191L21.4873 26.9354L20.9804 27.1043L20.8114 28.1177L21.1494 29.469L21.3184 33.0159L19.6286 34.1982H18.1077L16.5869 34.3671L16.249 35.0427V37.0695L16.08 37.7451L15.4041 38.7585L13.7143 40.4475L13.0383 40.7853V41.292L13.3763 43.3188L14.2212 45.5145L13.2074 49.3993L12.0245 50.7504H11.1796L9.9967 50.4127H8.64488H8.13796L7.29307 53.115L5.09635 54.6352L4.25145 55.6486L3.40656 55.4797L2.56166 55.3108L1.8857 54.8041H0.70282L1.37878 52.1017L2.22368 50.0749L2.89953 49.9059L3.74443 49.737L4.42039 49.3993L5.26529 48.7237L5.77221 47.5413L5.94125 47.0346L6.11019 46.1901L6.27913 43.9944L4.92731 38.7585L4.58933 35.3805L3.40656 31.158L3.57549 30.6513H4.75837L7.79998 28.2867L8.98286 25.0775L9.48978 21.1928L10.5036 19.166L10.8416 18.3215L11.0106 17.477V13.4234L11.8555 10.721L10.3347 8.01856L9.32084 6.49844L8.64488 4.80943L9.1518 4.13384L9.65872 3.79604H10.3347L11.5176 4.30273L12.0245 4.80943Z" stroke="#FCF8E3" stroke-miterlimit="10"/>
</svg>
