<svg width="93" height="41" viewBox="0 0 93 41" fill="none" xmlns="http://www.w3.org/2000/svg">
<mask id="mask0_55_117" style="mask-type:luminance" maskUnits="userSpaceOnUse" x="0" y="0" width="93" height="41">
<path d="M93 0H0V41H93V0Z" fill="white"/>
</mask>
<g mask="url(#mask0_55_117)">
<path d="M38.0989 0H0V6.97942H38.0989V0Z" fill="#0063AF"/>
<path d="M93.0002 0H38.0991V6.97942H93.0002V0Z" fill="#E73439"/>
<mask id="mask1_55_117" style="mask-type:luminance" maskUnits="userSpaceOnUse" x="0" y="0" width="93" height="41">
<path d="M93 0H0V41H93V0Z" fill="white"/>
</mask>
<g mask="url(#mask1_55_117)">
<path d="M10.2859 25.0761L10.0637 16.0587H10.0018C9.81236 17.1982 9.62296 18.02 9.48091 18.6372L7.9657 25.0761H4.9207L3.4674 18.6372C3.32535 18.02 3.13595 17.1982 2.93198 16.0587H2.87006L2.728 25.0761H0.833984L1.24557 14.397H4.79686C4.79686 14.397 5.96241 19.7767 6.57796 23.2244H6.62531C7.33557 19.7913 8.7233 14.397 8.7233 14.397H12.209L12.6206 25.0761H10.2859Z" fill="#575756"/>
<path d="M14.8245 25.0762V18.8126L13.9248 18.6227V17.3262H16.8751V25.0762H14.8245ZM14.7625 14.1597H16.846V16.0406H14.7625V14.1597Z" fill="#575756"/>
<path d="M23.4819 25.0763V20.4745C23.4819 19.3021 23.0412 18.7506 22.0942 18.7506C21.5588 18.7506 21.0999 18.988 20.7356 19.2254V25.0799H18.6704V17.3299H20.0909L20.4078 18.2174C20.8485 17.6951 21.7008 17.1729 22.8518 17.1729C24.8078 17.1729 25.5799 18.327 25.5799 20.2882V25.0799H23.4819V25.0763Z" fill="#575756"/>
<path d="M27.6526 25.0762V18.8126L26.7529 18.6227V17.3262H29.7032V25.0762H27.6526ZM27.5907 14.1597H29.6741V16.0406H27.5907V14.1597Z" fill="#575756"/>
<path d="M33.207 19.3642C33.207 20.5658 36.5507 20.2042 36.5507 22.7352C36.5507 24.1449 35.509 25.2333 33.5057 25.2333C32.5733 25.2333 31.7064 24.963 31.1855 24.6636L31.6117 23.2246C31.9759 23.4766 32.7299 23.7615 33.4402 23.7615C34.1504 23.7615 34.5766 23.3816 34.5766 22.9068C34.5766 21.5153 31.2802 21.9719 31.2802 19.3313C31.2802 18.1918 32.1471 17.1655 34.2305 17.1655C35.0355 17.1655 35.8696 17.3226 36.4087 17.5454L36.1246 19.0501C35.6037 18.8127 34.9408 18.6556 34.2633 18.6556C33.5859 18.6556 33.207 18.9223 33.207 19.3678" fill="#575756"/>
<path d="M40.958 25.2369C39.5848 25.2369 38.6852 24.5868 38.6852 22.6438V18.798H37.5342V17.3261H38.6852V15.9821L40.7212 15.3174V17.3261H42.7864V18.798H40.7212V22.5963C40.7212 23.1332 40.9908 23.4838 41.5408 23.4838C41.9669 23.4838 42.4076 23.356 42.7245 23.1989L43.0414 24.7182C42.5825 24.9885 41.7812 25.2405 40.958 25.2405" fill="#575756"/>
<path d="M45.8499 21.7564C45.8499 22.9909 46.5456 23.6702 47.8386 23.6702C48.6253 23.6702 49.4303 23.3707 50.1114 23.0201L50.5048 24.4773C49.8601 24.8243 48.8002 25.237 47.5873 25.237C45.2052 25.237 43.7847 23.7505 43.7847 21.1866C43.7847 18.7981 44.9356 17.1692 47.4124 17.1692C49.7472 17.1692 50.6614 18.9077 50.6614 20.8543V21.7564H45.8499ZM47.3032 18.6885C46.276 18.6885 45.8499 19.6235 45.8499 20.5402H48.6727C48.6727 19.5431 48.374 18.6885 47.2995 18.6885" fill="#575756"/>
<path d="M56.5909 19.0501C56.3396 18.9698 55.9753 18.9223 55.6293 18.9223C55.0757 18.9223 54.5876 19.1597 54.2416 19.4446V25.0763H52.1909V17.3263H53.626L53.8482 18.3708H53.8955C54.1323 17.8157 54.828 17.1838 55.7422 17.1838C56.1538 17.1838 56.467 17.2459 56.6419 17.2934L56.5945 19.0501H56.5909Z" fill="#575756"/>
<path d="M58.5325 25.0762V18.8126L57.6328 18.6227V17.3262H60.5831V25.0762H58.5325ZM58.4706 14.1597H60.554V16.0406H58.4706V14.1597Z" fill="#575756"/>
<path d="M69.3356 21.1866C69.3356 23.8272 68.0098 25.237 65.7079 25.237C63.4059 25.237 62.0801 23.8455 62.0801 21.1866C62.0801 18.9077 63.3403 17.1692 65.7079 17.1692C68.0754 17.1692 69.3356 18.9077 69.3356 21.1866ZM67.2231 21.1866C67.2231 19.3204 66.6694 18.6703 65.7079 18.6703C64.7463 18.6703 64.2108 19.335 64.2108 21.1866C64.2108 23.0383 64.6989 23.7176 65.7079 23.7176C66.7168 23.7176 67.2231 23.0383 67.2231 21.1866Z" fill="#575756"/>
<path d="M79.3519 17.9251C79.2244 17.4832 79.1625 17.0851 79.1625 16.5008V14.1597H81.2131V25.0762H79.5413L79.3045 24.2216C78.9876 24.6964 78.2482 25.2332 77.2539 25.2332C75.5019 25.2332 74.0996 23.9659 74.0996 21.1975C74.0996 18.6337 75.5493 17.1618 77.4287 17.1618C78.2665 17.1618 78.9257 17.4467 79.3519 17.9215M79.1625 19.0938C78.8456 18.9039 78.3575 18.714 77.7565 18.714C76.7804 18.714 76.1648 19.3787 76.1648 21.1829C76.1648 22.9871 76.7476 23.7285 77.7274 23.7285C78.2482 23.7285 78.7691 23.4765 79.1625 23.0638V19.0938Z" fill="#575756"/>
<path d="M84.7898 21.7564C84.7898 22.9909 85.4855 23.6702 86.7785 23.6702C87.5653 23.6702 88.3702 23.3707 89.0514 23.0201L89.4447 24.4773C88.8 24.8243 87.7401 25.237 86.5272 25.237C84.1451 25.237 82.7246 23.7505 82.7246 21.1866C82.7246 18.7981 83.8756 17.1692 86.3524 17.1692C88.6871 17.1692 89.6014 18.9077 89.6014 20.8543V21.7564H84.7898ZM86.2431 18.6885C85.216 18.6885 84.7898 19.6235 84.7898 20.5402H87.6126C87.6126 19.5431 87.314 18.6885 86.2395 18.6885" fill="#575756"/>
<path d="M1.0415 40.843V30.1638H7.5868V31.9205H3.10671V34.5465H6.53052L6.3739 36.3799H3.10671V39.1154H7.5868V40.843H1.0415Z" fill="#575756"/>
<path d="M13.91 33.6917C13.7825 33.2498 13.7206 32.8517 13.7206 32.2674V29.9263H15.7712V40.8428H14.0994L13.8626 39.9882C13.5457 40.463 12.8063 40.9998 11.812 40.9998C10.06 40.9998 8.65771 39.7325 8.65771 36.9641C8.65771 34.4003 10.1074 32.9284 11.9868 32.9284C12.8246 32.9284 13.4838 33.2133 13.91 33.6881M13.7206 34.8604C13.4037 34.6705 12.9156 34.4806 12.3146 34.4806C11.3385 34.4806 10.7229 35.1453 10.7229 36.9495C10.7229 38.7537 11.3057 39.4951 12.2855 39.4951C12.8063 39.4951 13.3272 39.2431 13.7206 38.8304V34.8604Z" fill="#575756"/>
<path d="M23.0341 40.8428L22.7173 39.8932C22.353 40.368 21.5335 40.9999 20.3024 40.9999C18.3792 40.9999 17.4941 39.9225 17.4941 37.7895V33.0928H19.5448V37.8078C19.5448 38.9948 19.9709 39.4221 20.9034 39.4221C21.4388 39.4221 21.9305 39.2176 22.2911 38.9619V33.0928H24.3891V40.8428H23.0305H23.0341Z" fill="#575756"/>
<path d="M32.231 40.3206C31.7902 40.558 30.7485 40.9999 29.5793 40.9999C27.2774 40.9999 25.8896 39.6851 25.8896 36.9642C25.8896 34.4332 27.2774 32.9285 29.5648 32.9285C30.5919 32.9285 31.4734 33.133 32.2164 33.5603L31.681 34.9701C31.1273 34.6377 30.4207 34.4953 29.7396 34.4953C28.6651 34.4953 27.9876 35.2221 27.9876 36.9642C27.9876 38.7063 28.636 39.4331 29.7542 39.4331C30.5591 39.4331 31.3459 39.1336 31.8522 38.8487L32.231 40.3206Z" fill="#575756"/>
<path d="M38.2556 40.8429L37.9715 39.9262C37.5782 40.463 36.806 41.0036 35.7169 41.0036C34.1726 41.0036 33.1309 40.0065 33.1309 38.5201C33.1309 37.0336 34.1871 36.2265 36.0484 36.2265H37.6729V35.832C37.6729 34.835 37.1047 34.5172 36.3143 34.5172C35.4 34.5172 34.6279 34.7546 33.9941 35.0395L33.4732 33.5676C34.2454 33.2353 35.3053 32.9358 36.5182 32.9358C38.7109 32.9358 39.6579 33.9475 39.6579 35.927V40.8465H38.2556V40.8429ZM37.6729 37.4573H36.3944C35.5421 37.4573 35.1487 37.87 35.1487 38.4543C35.1487 39.1665 35.5275 39.5938 36.2997 39.5938C36.7878 39.5938 37.2941 39.3747 37.6729 39.0715V37.4573Z" fill="#575756"/>
<path d="M47.4854 40.3206C47.0446 40.558 46.0029 40.9999 44.8337 40.9999C42.5318 40.9999 41.144 39.6851 41.144 36.9642C41.144 34.4332 42.5318 32.9285 44.8192 32.9285C45.8463 32.9285 46.7278 33.133 47.4708 33.5603L46.9354 34.9701C46.3817 34.6377 45.6751 34.4953 44.994 34.4953C43.9195 34.4953 43.242 35.2221 43.242 36.9642C43.242 38.7063 43.8904 39.4331 45.0086 39.4331C45.8135 39.4331 46.6003 39.1336 47.1066 38.8487L47.4854 40.3206Z" fill="#575756"/>
<path d="M49.4666 40.8428V34.5792L48.5669 34.3893V33.0928H51.5172V40.8465H49.4666V40.8428ZM49.4046 29.9263H51.4881V31.8072H49.4046V29.9263Z" fill="#575756"/>
<path d="M60.2697 36.9495C60.2697 39.5901 58.9439 40.9999 56.6419 40.9999C54.34 40.9999 53.0142 39.6084 53.0142 36.9495C53.0142 34.6706 54.2744 32.9321 56.6419 32.9321C59.0095 32.9321 60.2697 34.6706 60.2697 36.9495ZM54.7333 31.8875L54.5294 30.7006L58.5214 29.5757L58.7909 31.095L54.737 31.8875H54.7333ZM58.1571 36.9495C58.1571 35.0833 57.6035 34.4332 56.6419 34.4332C55.6804 34.4332 55.1449 35.0979 55.1449 36.9495C55.1449 38.8012 55.633 39.4805 56.6419 39.4805C57.6509 39.4805 58.1571 38.8012 58.1571 36.9495Z" fill="#575756"/>
<path d="M66.5528 40.8429V36.2411C66.5528 35.0687 66.112 34.5172 65.165 34.5172C64.6296 34.5172 64.1707 34.7546 63.8064 34.992V40.8465H61.7412V33.0965H63.1617L63.4786 33.984C63.9193 33.4617 64.7716 32.9395 65.9226 32.9395C67.8786 32.9395 68.6507 34.0936 68.6507 36.0548V40.8465H66.5528V40.8429Z" fill="#575756"/>
</g>
</g>
</svg>
