<svg width="44" height="44" viewBox="0 0 44 44" fill="none" xmlns="http://www.w3.org/2000/svg">
<path d="M33.5 22C33.5 28.3513 28.3513 33.5 22 33.5C15.6487 33.5 10.5 28.3513 10.5 22C10.5 15.6487 15.6487 10.5 22 10.5C28.3513 10.5 33.5 15.6487 33.5 22Z" stroke="black"/>
<mask id="path-2-inside-1_30_905" fill="white">
<path d="M22 34C20.4241 34 18.8637 33.6896 17.4078 33.0866C15.9519 32.4835 14.629 31.5996 13.5147 30.4853C12.4004 29.371 11.5165 28.0481 10.9134 26.5922C10.3104 25.1363 10 23.5759 10 22C10 20.4241 10.3104 18.8637 10.9134 17.4078C11.5165 15.9519 12.4004 14.629 13.5147 13.5147C14.629 12.4004 15.9519 11.5165 17.4078 10.9134C18.8637 10.3104 20.4241 10 22 10L22 22L22 34Z"/>
</mask>
<path d="M22 34C20.4241 34 18.8637 33.6896 17.4078 33.0866C15.9519 32.4835 14.629 31.5996 13.5147 30.4853C12.4004 29.371 11.5165 28.0481 10.9134 26.5922C10.3104 25.1363 10 23.5759 10 22C10 20.4241 10.3104 18.8637 10.9134 17.4078C11.5165 15.9519 12.4004 14.629 13.5147 13.5147C14.629 12.4004 15.9519 11.5165 17.4078 10.9134C18.8637 10.3104 20.4241 10 22 10L22 22L22 34Z" fill="black" stroke="black" stroke-width="2" mask="url(#path-2-inside-1_30_905)"/>
</svg>
